M48
; DRILL file {KiCad (5.1.9)-1} date 03/19/21 20:09:43
; FORMAT={-:-/ absolute / inch / decimal}
; #@! TF.CreationDate,2021-03-19T20:09:43+05:30
; #@! TF.GenerationSoftware,Kicad,Pcbnew,(5.1.9)-1
; #@! TF.FileFunction,Plated,1,2,PTH
FMAT,2
INCH
T1C0.0394
T2C0.0433
T3C0.0512
%
G90
G05
T1
X4.0031Y-3.55
X4.1016Y-3.55
X4.2Y-3.55
X4.55Y-3.9563
X4.55Y-4.35
X4.6Y-3.4
X4.9937Y-3.4
T2
X3.95Y-3.85
X4.25Y-3.7
X4.35Y-3.85
X4.65Y-3.7
X4.85Y-3.7
X4.85Y-3.8
X4.85Y-3.9
X5.05Y-3.6
X5.05Y-4.0
T3
X5.3Y-3.25
X5.3Y-3.45
X5.3Y-3.8
X5.3Y-4.0
T0
M30
