%TF.GenerationSoftware,KiCad,Pcbnew,(5.1.9)-1*%
%TF.CreationDate,2021-03-19T20:09:11+05:30*%
%TF.ProjectId,test2,74657374-322e-46b6-9963-61645f706362,rev?*%
%TF.SameCoordinates,Original*%
%TF.FileFunction,Other,Fab,Top*%
%FSLAX46Y46*%
G04 Gerber Fmt 4.6, Leading zero omitted, Abs format (unit mm)*
G04 Created by KiCad (PCBNEW (5.1.9)-1) date 2021-03-19 20:09:11*
%MOMM*%
%LPD*%
G01*
G04 APERTURE LIST*
%ADD10C,0.100000*%
%ADD11C,0.150000*%
%ADD12C,0.120000*%
G04 APERTURE END LIST*
D10*
%TO.C,RV1*%
X99280000Y-77170000D02*
X99280000Y-89170000D01*
X109080000Y-77170000D02*
X99280000Y-77170000D01*
X109080000Y-89170000D02*
X109080000Y-77170000D01*
X99280000Y-89170000D02*
X109080000Y-89170000D01*
X107180000Y-82670000D02*
G75*
G03*
X107180000Y-82670000I-3000000J0D01*
G01*
%TO.C,vcc1*%
X134620000Y-87630000D02*
X134620000Y-82550000D01*
%TO.C,U1*%
X108155000Y-102190000D02*
X109130000Y-103165000D01*
X104230000Y-102190000D02*
X108155000Y-102190000D01*
X104230000Y-106090000D02*
X104230000Y-102190000D01*
X109130000Y-106090000D02*
X104230000Y-106090000D01*
X109130000Y-103165000D02*
X109130000Y-106090000D01*
%TO.C,Q1*%
X120040000Y-94670000D02*
X121310000Y-94670000D01*
X120040000Y-98370000D02*
X121310000Y-98370000D01*
X121310000Y-101520000D02*
X121310000Y-91520000D01*
X120040000Y-91520000D02*
X120040000Y-101520000D01*
X124440000Y-91520000D02*
X120040000Y-91520000D01*
X124440000Y-101520000D02*
X124440000Y-91520000D01*
X120040000Y-101520000D02*
X124440000Y-101520000D01*
%TO.C,dcmotor1*%
X134620000Y-96520000D02*
X134620000Y-101600000D01*
%TO.C,D3*%
X126920000Y-98440000D02*
X129620000Y-98440000D01*
X126920000Y-98240000D02*
X129620000Y-98240000D01*
X126920000Y-98340000D02*
X129620000Y-98340000D01*
X128270000Y-91440000D02*
X128270000Y-93920000D01*
X128270000Y-101600000D02*
X128270000Y-99120000D01*
X126920000Y-93920000D02*
X126920000Y-99120000D01*
X129620000Y-93920000D02*
X126920000Y-93920000D01*
X129620000Y-99120000D02*
X129620000Y-93920000D01*
X126920000Y-99120000D02*
X129620000Y-99120000D01*
%TO.C,D2*%
X107330000Y-99140000D02*
X107330000Y-96440000D01*
X107130000Y-99140000D02*
X107130000Y-96440000D01*
X107230000Y-99140000D02*
X107230000Y-96440000D01*
X100330000Y-97790000D02*
X102810000Y-97790000D01*
X110490000Y-97790000D02*
X108010000Y-97790000D01*
X102810000Y-99140000D02*
X108010000Y-99140000D01*
X102810000Y-96440000D02*
X102810000Y-99140000D01*
X108010000Y-96440000D02*
X102810000Y-96440000D01*
X108010000Y-99140000D02*
X108010000Y-96440000D01*
%TO.C,D1*%
X111110000Y-92630000D02*
X111110000Y-95330000D01*
X111310000Y-92630000D02*
X111310000Y-95330000D01*
X111210000Y-92630000D02*
X111210000Y-95330000D01*
X118110000Y-93980000D02*
X115630000Y-93980000D01*
X107950000Y-93980000D02*
X110430000Y-93980000D01*
X115630000Y-92630000D02*
X110430000Y-92630000D01*
X115630000Y-95330000D02*
X115630000Y-92630000D01*
X110430000Y-95330000D02*
X115630000Y-95330000D01*
X110430000Y-92630000D02*
X110430000Y-95330000D01*
%TO.C,10K1*%
X123990000Y-103810000D02*
X123990000Y-107010000D01*
X122390000Y-103810000D02*
X123990000Y-103810000D01*
X122390000Y-107010000D02*
X122390000Y-103810000D01*
X123990000Y-107010000D02*
X122390000Y-107010000D01*
%TO.C,100pfd1*%
X113070000Y-101740000D02*
X113070000Y-109240000D01*
X118070000Y-101740000D02*
X113070000Y-101740000D01*
X118070000Y-109240000D02*
X118070000Y-101740000D01*
X113070000Y-109240000D02*
X118070000Y-109240000D01*
%TO.C,100nfd1*%
X125590000Y-83860000D02*
X118090000Y-83860000D01*
X125590000Y-88860000D02*
X125590000Y-83860000D01*
X118090000Y-88860000D02*
X125590000Y-88860000D01*
X118090000Y-83860000D02*
X118090000Y-88860000D01*
%TD*%
%TO.C,REF\u002A\u002A*%
D11*
X123516666Y-113372380D02*
X123516666Y-112372380D01*
X123850000Y-113086666D01*
X124183333Y-112372380D01*
X124183333Y-113372380D01*
X124802380Y-113372380D02*
X124707142Y-113324761D01*
X124659523Y-113277142D01*
X124611904Y-113181904D01*
X124611904Y-112896190D01*
X124659523Y-112800952D01*
X124707142Y-112753333D01*
X124802380Y-112705714D01*
X124945238Y-112705714D01*
X125040476Y-112753333D01*
X125088095Y-112800952D01*
X125135714Y-112896190D01*
X125135714Y-113181904D01*
X125088095Y-113277142D01*
X125040476Y-113324761D01*
X124945238Y-113372380D01*
X124802380Y-113372380D01*
X125992857Y-112705714D02*
X125992857Y-113372380D01*
X125564285Y-112705714D02*
X125564285Y-113229523D01*
X125611904Y-113324761D01*
X125707142Y-113372380D01*
X125850000Y-113372380D01*
X125945238Y-113324761D01*
X125992857Y-113277142D01*
X126469047Y-112705714D02*
X126469047Y-113372380D01*
X126469047Y-112800952D02*
X126516666Y-112753333D01*
X126611904Y-112705714D01*
X126754761Y-112705714D01*
X126850000Y-112753333D01*
X126897619Y-112848571D01*
X126897619Y-113372380D01*
X127230952Y-112705714D02*
X127611904Y-112705714D01*
X127373809Y-112372380D02*
X127373809Y-113229523D01*
X127421428Y-113324761D01*
X127516666Y-113372380D01*
X127611904Y-113372380D01*
X127945238Y-113372380D02*
X127945238Y-112705714D01*
X127945238Y-112372380D02*
X127897619Y-112420000D01*
X127945238Y-112467619D01*
X127992857Y-112420000D01*
X127945238Y-112372380D01*
X127945238Y-112467619D01*
X128421428Y-112705714D02*
X128421428Y-113372380D01*
X128421428Y-112800952D02*
X128469047Y-112753333D01*
X128564285Y-112705714D01*
X128707142Y-112705714D01*
X128802380Y-112753333D01*
X128850000Y-112848571D01*
X128850000Y-113372380D01*
X129754761Y-112705714D02*
X129754761Y-113515238D01*
X129707142Y-113610476D01*
X129659523Y-113658095D01*
X129564285Y-113705714D01*
X129421428Y-113705714D01*
X129326190Y-113658095D01*
X129754761Y-113324761D02*
X129659523Y-113372380D01*
X129469047Y-113372380D01*
X129373809Y-113324761D01*
X129326190Y-113277142D01*
X129278571Y-113181904D01*
X129278571Y-112896190D01*
X129326190Y-112800952D01*
X129373809Y-112753333D01*
X129469047Y-112705714D01*
X129659523Y-112705714D01*
X129754761Y-112753333D01*
X130230952Y-113372380D02*
X130230952Y-112372380D01*
X130230952Y-112848571D02*
X130802380Y-112848571D01*
X130802380Y-113372380D02*
X130802380Y-112372380D01*
X131421428Y-113372380D02*
X131326190Y-113324761D01*
X131278571Y-113277142D01*
X131230952Y-113181904D01*
X131230952Y-112896190D01*
X131278571Y-112800952D01*
X131326190Y-112753333D01*
X131421428Y-112705714D01*
X131564285Y-112705714D01*
X131659523Y-112753333D01*
X131707142Y-112800952D01*
X131754761Y-112896190D01*
X131754761Y-113181904D01*
X131707142Y-113277142D01*
X131659523Y-113324761D01*
X131564285Y-113372380D01*
X131421428Y-113372380D01*
X132326190Y-113372380D02*
X132230952Y-113324761D01*
X132183333Y-113229523D01*
X132183333Y-112372380D01*
X133088095Y-113324761D02*
X132992857Y-113372380D01*
X132802380Y-113372380D01*
X132707142Y-113324761D01*
X132659523Y-113229523D01*
X132659523Y-112848571D01*
X132707142Y-112753333D01*
X132802380Y-112705714D01*
X132992857Y-112705714D01*
X133088095Y-112753333D01*
X133135714Y-112848571D01*
X133135714Y-112943809D01*
X132659523Y-113039047D01*
X133326190Y-113467619D02*
X134088095Y-113467619D01*
X134278571Y-112467619D02*
X134326190Y-112420000D01*
X134421428Y-112372380D01*
X134659523Y-112372380D01*
X134754761Y-112420000D01*
X134802380Y-112467619D01*
X134850000Y-112562857D01*
X134850000Y-112658095D01*
X134802380Y-112800952D01*
X134230952Y-113372380D01*
X134850000Y-113372380D01*
X135278571Y-113277142D02*
X135326190Y-113324761D01*
X135278571Y-113372380D01*
X135230952Y-113324761D01*
X135278571Y-113277142D01*
X135278571Y-113372380D01*
X135659523Y-112372380D02*
X136326190Y-112372380D01*
X135897619Y-113372380D01*
X136707142Y-113372380D02*
X136707142Y-112705714D01*
X136707142Y-112800952D02*
X136754761Y-112753333D01*
X136850000Y-112705714D01*
X136992857Y-112705714D01*
X137088095Y-112753333D01*
X137135714Y-112848571D01*
X137135714Y-113372380D01*
X137135714Y-112848571D02*
X137183333Y-112753333D01*
X137278571Y-112705714D01*
X137421428Y-112705714D01*
X137516666Y-112753333D01*
X137564285Y-112848571D01*
X137564285Y-113372380D01*
X138040476Y-113372380D02*
X138040476Y-112705714D01*
X138040476Y-112800952D02*
X138088095Y-112753333D01*
X138183333Y-112705714D01*
X138326190Y-112705714D01*
X138421428Y-112753333D01*
X138469047Y-112848571D01*
X138469047Y-113372380D01*
X138469047Y-112848571D02*
X138516666Y-112753333D01*
X138611904Y-112705714D01*
X138754761Y-112705714D01*
X138850000Y-112753333D01*
X138897619Y-112848571D01*
X138897619Y-113372380D01*
X139135714Y-113467619D02*
X139897619Y-113467619D01*
X140135714Y-113372380D02*
X140135714Y-112372380D01*
X140469047Y-113086666D01*
X140802380Y-112372380D01*
X140802380Y-113372380D01*
X141230952Y-112467619D02*
X141278571Y-112420000D01*
X141373809Y-112372380D01*
X141611904Y-112372380D01*
X141707142Y-112420000D01*
X141754761Y-112467619D01*
X141802380Y-112562857D01*
X141802380Y-112658095D01*
X141754761Y-112800952D01*
X141183333Y-113372380D01*
X141802380Y-113372380D01*
X142230952Y-113277142D02*
X142278571Y-113324761D01*
X142230952Y-113372380D01*
X142183333Y-113324761D01*
X142230952Y-113277142D01*
X142230952Y-113372380D01*
X143183333Y-112372380D02*
X142707142Y-112372380D01*
X142659523Y-112848571D01*
X142707142Y-112800952D01*
X142802380Y-112753333D01*
X143040476Y-112753333D01*
X143135714Y-112800952D01*
X143183333Y-112848571D01*
X143230952Y-112943809D01*
X143230952Y-113181904D01*
X143183333Y-113277142D01*
X143135714Y-113324761D01*
X143040476Y-113372380D01*
X142802380Y-113372380D01*
X142707142Y-113324761D01*
X142659523Y-113277142D01*
X132316666Y-109672380D02*
X131983333Y-109196190D01*
X131745238Y-109672380D02*
X131745238Y-108672380D01*
X132126190Y-108672380D01*
X132221428Y-108720000D01*
X132269047Y-108767619D01*
X132316666Y-108862857D01*
X132316666Y-109005714D01*
X132269047Y-109100952D01*
X132221428Y-109148571D01*
X132126190Y-109196190D01*
X131745238Y-109196190D01*
X132745238Y-109148571D02*
X133078571Y-109148571D01*
X133221428Y-109672380D02*
X132745238Y-109672380D01*
X132745238Y-108672380D01*
X133221428Y-108672380D01*
X133983333Y-109148571D02*
X133650000Y-109148571D01*
X133650000Y-109672380D02*
X133650000Y-108672380D01*
X134126190Y-108672380D01*
X134650000Y-108672380D02*
X134650000Y-108910476D01*
X134411904Y-108815238D02*
X134650000Y-108910476D01*
X134888095Y-108815238D01*
X134507142Y-109100952D02*
X134650000Y-108910476D01*
X134792857Y-109100952D01*
X135411904Y-108672380D02*
X135411904Y-108910476D01*
X135173809Y-108815238D02*
X135411904Y-108910476D01*
X135650000Y-108815238D01*
X135269047Y-109100952D02*
X135411904Y-108910476D01*
X135554761Y-109100952D01*
%TO.C,RV1*%
X103584761Y-88622380D02*
X103251428Y-88146190D01*
X103013333Y-88622380D02*
X103013333Y-87622380D01*
X103394285Y-87622380D01*
X103489523Y-87670000D01*
X103537142Y-87717619D01*
X103584761Y-87812857D01*
X103584761Y-87955714D01*
X103537142Y-88050952D01*
X103489523Y-88098571D01*
X103394285Y-88146190D01*
X103013333Y-88146190D01*
X103870476Y-87622380D02*
X104203809Y-88622380D01*
X104537142Y-87622380D01*
X105394285Y-88622380D02*
X104822857Y-88622380D01*
X105108571Y-88622380D02*
X105108571Y-87622380D01*
X105013333Y-87765238D01*
X104918095Y-87860476D01*
X104822857Y-87908095D01*
%TO.C,vcc1*%
X134405714Y-88856427D02*
X135072380Y-88618332D01*
X134405714Y-88380237D01*
X135024761Y-87570713D02*
X135072380Y-87665951D01*
X135072380Y-87856427D01*
X135024761Y-87951665D01*
X134977142Y-87999284D01*
X134881904Y-88046903D01*
X134596190Y-88046903D01*
X134500952Y-87999284D01*
X134453333Y-87951665D01*
X134405714Y-87856427D01*
X134405714Y-87665951D01*
X134453333Y-87570713D01*
X135024761Y-86713570D02*
X135072380Y-86808808D01*
X135072380Y-86999284D01*
X135024761Y-87094522D01*
X134977142Y-87142141D01*
X134881904Y-87189760D01*
X134596190Y-87189760D01*
X134500952Y-87142141D01*
X134453333Y-87094522D01*
X134405714Y-86999284D01*
X134405714Y-86808808D01*
X134453333Y-86713570D01*
X135072380Y-85761189D02*
X135072380Y-86332618D01*
X135072380Y-86046903D02*
X134072380Y-86046903D01*
X134215238Y-86142141D01*
X134310476Y-86237379D01*
X134358095Y-86332618D01*
%TO.C,U1*%
X106538334Y-105451665D02*
X107331667Y-105451665D01*
X107425001Y-105404999D01*
X107471667Y-105358332D01*
X107518334Y-105264999D01*
X107518334Y-105078332D01*
X107471667Y-104984999D01*
X107425001Y-104938332D01*
X107331667Y-104891665D01*
X106538334Y-104891665D01*
X107518334Y-103911665D02*
X107518334Y-104471665D01*
X107518334Y-104191665D02*
X106538334Y-104191665D01*
X106678334Y-104284999D01*
X106771667Y-104378332D01*
X106818334Y-104471665D01*
%TO.C,Q1*%
X119467619Y-96615238D02*
X119420000Y-96710476D01*
X119324761Y-96805714D01*
X119181904Y-96948571D01*
X119134285Y-97043809D01*
X119134285Y-97139047D01*
X119372380Y-97091428D02*
X119324761Y-97186666D01*
X119229523Y-97281904D01*
X119039047Y-97329523D01*
X118705714Y-97329523D01*
X118515238Y-97281904D01*
X118420000Y-97186666D01*
X118372380Y-97091428D01*
X118372380Y-96900952D01*
X118420000Y-96805714D01*
X118515238Y-96710476D01*
X118705714Y-96662857D01*
X119039047Y-96662857D01*
X119229523Y-96710476D01*
X119324761Y-96805714D01*
X119372380Y-96900952D01*
X119372380Y-97091428D01*
X119372380Y-95710476D02*
X119372380Y-96281904D01*
X119372380Y-95996190D02*
X118372380Y-95996190D01*
X118515238Y-96091428D01*
X118610476Y-96186666D01*
X118658095Y-96281904D01*
%TO.C,dcmotor1*%
X135072380Y-101917142D02*
X134072380Y-101917142D01*
X135024761Y-101917142D02*
X135072380Y-102012380D01*
X135072380Y-102202857D01*
X135024761Y-102298095D01*
X134977142Y-102345714D01*
X134881904Y-102393333D01*
X134596190Y-102393333D01*
X134500952Y-102345714D01*
X134453333Y-102298095D01*
X134405714Y-102202857D01*
X134405714Y-102012380D01*
X134453333Y-101917142D01*
X135024761Y-101012380D02*
X135072380Y-101107619D01*
X135072380Y-101298095D01*
X135024761Y-101393333D01*
X134977142Y-101440952D01*
X134881904Y-101488571D01*
X134596190Y-101488571D01*
X134500952Y-101440952D01*
X134453333Y-101393333D01*
X134405714Y-101298095D01*
X134405714Y-101107619D01*
X134453333Y-101012380D01*
X135072380Y-100583809D02*
X134405714Y-100583809D01*
X134500952Y-100583809D02*
X134453333Y-100536190D01*
X134405714Y-100440952D01*
X134405714Y-100298095D01*
X134453333Y-100202857D01*
X134548571Y-100155238D01*
X135072380Y-100155238D01*
X134548571Y-100155238D02*
X134453333Y-100107619D01*
X134405714Y-100012380D01*
X134405714Y-99869523D01*
X134453333Y-99774285D01*
X134548571Y-99726666D01*
X135072380Y-99726666D01*
X135072380Y-99107619D02*
X135024761Y-99202857D01*
X134977142Y-99250476D01*
X134881904Y-99298095D01*
X134596190Y-99298095D01*
X134500952Y-99250476D01*
X134453333Y-99202857D01*
X134405714Y-99107619D01*
X134405714Y-98964761D01*
X134453333Y-98869523D01*
X134500952Y-98821904D01*
X134596190Y-98774285D01*
X134881904Y-98774285D01*
X134977142Y-98821904D01*
X135024761Y-98869523D01*
X135072380Y-98964761D01*
X135072380Y-99107619D01*
X134405714Y-98488571D02*
X134405714Y-98107619D01*
X134072380Y-98345714D02*
X134929523Y-98345714D01*
X135024761Y-98298095D01*
X135072380Y-98202857D01*
X135072380Y-98107619D01*
X135072380Y-97631428D02*
X135024761Y-97726666D01*
X134977142Y-97774285D01*
X134881904Y-97821904D01*
X134596190Y-97821904D01*
X134500952Y-97774285D01*
X134453333Y-97726666D01*
X134405714Y-97631428D01*
X134405714Y-97488571D01*
X134453333Y-97393333D01*
X134500952Y-97345714D01*
X134596190Y-97298095D01*
X134881904Y-97298095D01*
X134977142Y-97345714D01*
X135024761Y-97393333D01*
X135072380Y-97488571D01*
X135072380Y-97631428D01*
X135072380Y-96869523D02*
X134405714Y-96869523D01*
X134596190Y-96869523D02*
X134500952Y-96821904D01*
X134453333Y-96774285D01*
X134405714Y-96679047D01*
X134405714Y-96583809D01*
X135072380Y-95726666D02*
X135072380Y-96298095D01*
X135072380Y-96012380D02*
X134072380Y-96012380D01*
X134215238Y-96107619D01*
X134310476Y-96202857D01*
X134358095Y-96298095D01*
%TO.C,D3*%
X126622380Y-101861904D02*
X125622380Y-101861904D01*
X126622380Y-101290476D02*
X126050952Y-101719047D01*
X125622380Y-101290476D02*
X126193809Y-101861904D01*
X128722380Y-96868095D02*
X127722380Y-96868095D01*
X127722380Y-96630000D01*
X127770000Y-96487142D01*
X127865238Y-96391904D01*
X127960476Y-96344285D01*
X128150952Y-96296666D01*
X128293809Y-96296666D01*
X128484285Y-96344285D01*
X128579523Y-96391904D01*
X128674761Y-96487142D01*
X128722380Y-96630000D01*
X128722380Y-96868095D01*
X127722380Y-95963333D02*
X127722380Y-95344285D01*
X128103333Y-95677619D01*
X128103333Y-95534761D01*
X128150952Y-95439523D01*
X128198571Y-95391904D01*
X128293809Y-95344285D01*
X128531904Y-95344285D01*
X128627142Y-95391904D01*
X128674761Y-95439523D01*
X128722380Y-95534761D01*
X128722380Y-95820476D01*
X128674761Y-95915714D01*
X128627142Y-95963333D01*
%TO.C,D2*%
X103267142Y-95772380D02*
X102695714Y-95772380D01*
X102981428Y-95772380D02*
X102981428Y-94772380D01*
X102886190Y-94915238D01*
X102790952Y-95010476D01*
X102695714Y-95058095D01*
X103695714Y-95772380D02*
X103695714Y-94772380D01*
X104267142Y-95772380D01*
X104267142Y-94772380D01*
X105219523Y-94772380D02*
X104743333Y-94772380D01*
X104695714Y-95248571D01*
X104743333Y-95200952D01*
X104838571Y-95153333D01*
X105076666Y-95153333D01*
X105171904Y-95200952D01*
X105219523Y-95248571D01*
X105267142Y-95343809D01*
X105267142Y-95581904D01*
X105219523Y-95677142D01*
X105171904Y-95724761D01*
X105076666Y-95772380D01*
X104838571Y-95772380D01*
X104743333Y-95724761D01*
X104695714Y-95677142D01*
X105838571Y-95200952D02*
X105743333Y-95153333D01*
X105695714Y-95105714D01*
X105648095Y-95010476D01*
X105648095Y-94962857D01*
X105695714Y-94867619D01*
X105743333Y-94820000D01*
X105838571Y-94772380D01*
X106029047Y-94772380D01*
X106124285Y-94820000D01*
X106171904Y-94867619D01*
X106219523Y-94962857D01*
X106219523Y-95010476D01*
X106171904Y-95105714D01*
X106124285Y-95153333D01*
X106029047Y-95200952D01*
X105838571Y-95200952D01*
X105743333Y-95248571D01*
X105695714Y-95296190D01*
X105648095Y-95391428D01*
X105648095Y-95581904D01*
X105695714Y-95677142D01*
X105743333Y-95724761D01*
X105838571Y-95772380D01*
X106029047Y-95772380D01*
X106124285Y-95724761D01*
X106171904Y-95677142D01*
X106219523Y-95581904D01*
X106219523Y-95391428D01*
X106171904Y-95296190D01*
X106124285Y-95248571D01*
X106029047Y-95200952D01*
X107171904Y-95772380D02*
X106600476Y-95772380D01*
X106886190Y-95772380D02*
X106886190Y-94772380D01*
X106790952Y-94915238D01*
X106695714Y-95010476D01*
X106600476Y-95058095D01*
X107648095Y-95772380D02*
X107838571Y-95772380D01*
X107933809Y-95724761D01*
X107981428Y-95677142D01*
X108076666Y-95534285D01*
X108124285Y-95343809D01*
X108124285Y-94962857D01*
X108076666Y-94867619D01*
X108029047Y-94820000D01*
X107933809Y-94772380D01*
X107743333Y-94772380D01*
X107648095Y-94820000D01*
X107600476Y-94867619D01*
X107552857Y-94962857D01*
X107552857Y-95200952D01*
X107600476Y-95296190D01*
X107648095Y-95343809D01*
X107743333Y-95391428D01*
X107933809Y-95391428D01*
X108029047Y-95343809D01*
X108076666Y-95296190D01*
X108124285Y-95200952D01*
X110228095Y-100342380D02*
X110228095Y-99342380D01*
X110799523Y-100342380D02*
X110370952Y-99770952D01*
X110799523Y-99342380D02*
X110228095Y-99913809D01*
X104281904Y-98242380D02*
X104281904Y-97242380D01*
X104520000Y-97242380D01*
X104662857Y-97290000D01*
X104758095Y-97385238D01*
X104805714Y-97480476D01*
X104853333Y-97670952D01*
X104853333Y-97813809D01*
X104805714Y-98004285D01*
X104758095Y-98099523D01*
X104662857Y-98194761D01*
X104520000Y-98242380D01*
X104281904Y-98242380D01*
X105234285Y-97337619D02*
X105281904Y-97290000D01*
X105377142Y-97242380D01*
X105615238Y-97242380D01*
X105710476Y-97290000D01*
X105758095Y-97337619D01*
X105805714Y-97432857D01*
X105805714Y-97528095D01*
X105758095Y-97670952D01*
X105186666Y-98242380D01*
X105805714Y-98242380D01*
%TO.C,D1*%
X110887142Y-96902380D02*
X110315714Y-96902380D01*
X110601428Y-96902380D02*
X110601428Y-95902380D01*
X110506190Y-96045238D01*
X110410952Y-96140476D01*
X110315714Y-96188095D01*
X111315714Y-96902380D02*
X111315714Y-95902380D01*
X111887142Y-96902380D01*
X111887142Y-95902380D01*
X112839523Y-95902380D02*
X112363333Y-95902380D01*
X112315714Y-96378571D01*
X112363333Y-96330952D01*
X112458571Y-96283333D01*
X112696666Y-96283333D01*
X112791904Y-96330952D01*
X112839523Y-96378571D01*
X112887142Y-96473809D01*
X112887142Y-96711904D01*
X112839523Y-96807142D01*
X112791904Y-96854761D01*
X112696666Y-96902380D01*
X112458571Y-96902380D01*
X112363333Y-96854761D01*
X112315714Y-96807142D01*
X113458571Y-96330952D02*
X113363333Y-96283333D01*
X113315714Y-96235714D01*
X113268095Y-96140476D01*
X113268095Y-96092857D01*
X113315714Y-95997619D01*
X113363333Y-95950000D01*
X113458571Y-95902380D01*
X113649047Y-95902380D01*
X113744285Y-95950000D01*
X113791904Y-95997619D01*
X113839523Y-96092857D01*
X113839523Y-96140476D01*
X113791904Y-96235714D01*
X113744285Y-96283333D01*
X113649047Y-96330952D01*
X113458571Y-96330952D01*
X113363333Y-96378571D01*
X113315714Y-96426190D01*
X113268095Y-96521428D01*
X113268095Y-96711904D01*
X113315714Y-96807142D01*
X113363333Y-96854761D01*
X113458571Y-96902380D01*
X113649047Y-96902380D01*
X113744285Y-96854761D01*
X113791904Y-96807142D01*
X113839523Y-96711904D01*
X113839523Y-96521428D01*
X113791904Y-96426190D01*
X113744285Y-96378571D01*
X113649047Y-96330952D01*
X114791904Y-96902380D02*
X114220476Y-96902380D01*
X114506190Y-96902380D02*
X114506190Y-95902380D01*
X114410952Y-96045238D01*
X114315714Y-96140476D01*
X114220476Y-96188095D01*
X115268095Y-96902380D02*
X115458571Y-96902380D01*
X115553809Y-96854761D01*
X115601428Y-96807142D01*
X115696666Y-96664285D01*
X115744285Y-96473809D01*
X115744285Y-96092857D01*
X115696666Y-95997619D01*
X115649047Y-95950000D01*
X115553809Y-95902380D01*
X115363333Y-95902380D01*
X115268095Y-95950000D01*
X115220476Y-95997619D01*
X115172857Y-96092857D01*
X115172857Y-96330952D01*
X115220476Y-96426190D01*
X115268095Y-96473809D01*
X115363333Y-96521428D01*
X115553809Y-96521428D01*
X115649047Y-96473809D01*
X115696666Y-96426190D01*
X115744285Y-96330952D01*
X107688095Y-92332380D02*
X107688095Y-91332380D01*
X108259523Y-92332380D02*
X107830952Y-91760952D01*
X108259523Y-91332380D02*
X107688095Y-91903809D01*
X112681904Y-94432380D02*
X112681904Y-93432380D01*
X112920000Y-93432380D01*
X113062857Y-93480000D01*
X113158095Y-93575238D01*
X113205714Y-93670476D01*
X113253333Y-93860952D01*
X113253333Y-94003809D01*
X113205714Y-94194285D01*
X113158095Y-94289523D01*
X113062857Y-94384761D01*
X112920000Y-94432380D01*
X112681904Y-94432380D01*
X114205714Y-94432380D02*
X113634285Y-94432380D01*
X113920000Y-94432380D02*
X113920000Y-93432380D01*
X113824761Y-93575238D01*
X113729523Y-93670476D01*
X113634285Y-93718095D01*
%TO.C,10K1*%
X125462380Y-107386190D02*
X124986190Y-107719523D01*
X125462380Y-107957619D02*
X124462380Y-107957619D01*
X124462380Y-107576666D01*
X124510000Y-107481428D01*
X124557619Y-107433809D01*
X124652857Y-107386190D01*
X124795714Y-107386190D01*
X124890952Y-107433809D01*
X124938571Y-107481428D01*
X124986190Y-107576666D01*
X124986190Y-107957619D01*
X125462380Y-105671904D02*
X125462380Y-106243333D01*
X125462380Y-105957619D02*
X124462380Y-105957619D01*
X124605238Y-106052857D01*
X124700476Y-106148095D01*
X124748095Y-106243333D01*
X124557619Y-105290952D02*
X124510000Y-105243333D01*
X124462380Y-105148095D01*
X124462380Y-104910000D01*
X124510000Y-104814761D01*
X124557619Y-104767142D01*
X124652857Y-104719523D01*
X124748095Y-104719523D01*
X124890952Y-104767142D01*
X125462380Y-105338571D01*
X125462380Y-104719523D01*
X124462380Y-104100476D02*
X124462380Y-104005238D01*
X124510000Y-103910000D01*
X124557619Y-103862380D01*
X124652857Y-103814761D01*
X124843333Y-103767142D01*
X125081428Y-103767142D01*
X125271904Y-103814761D01*
X125367142Y-103862380D01*
X125414761Y-103910000D01*
X125462380Y-104005238D01*
X125462380Y-104100476D01*
X125414761Y-104195714D01*
X125367142Y-104243333D01*
X125271904Y-104290952D01*
X125081428Y-104338571D01*
X124843333Y-104338571D01*
X124652857Y-104290952D01*
X124557619Y-104243333D01*
X124510000Y-104195714D01*
X124462380Y-104100476D01*
X124462380Y-102910000D02*
X124462380Y-103100476D01*
X124510000Y-103195714D01*
X124557619Y-103243333D01*
X124700476Y-103338571D01*
X124890952Y-103386190D01*
X125271904Y-103386190D01*
X125367142Y-103338571D01*
X125414761Y-103290952D01*
X125462380Y-103195714D01*
X125462380Y-103005238D01*
X125414761Y-102910000D01*
X125367142Y-102862380D01*
X125271904Y-102814761D01*
X125033809Y-102814761D01*
X124938571Y-102862380D01*
X124890952Y-102910000D01*
X124843333Y-103005238D01*
X124843333Y-103195714D01*
X124890952Y-103290952D01*
X124938571Y-103338571D01*
X125033809Y-103386190D01*
D12*
X123551904Y-105073333D02*
X123551904Y-105530476D01*
X123551904Y-105301904D02*
X122751904Y-105301904D01*
X122866190Y-105378095D01*
X122942380Y-105454285D01*
X122980476Y-105530476D01*
X122751904Y-104578095D02*
X122751904Y-104501904D01*
X122790000Y-104425714D01*
X122828095Y-104387619D01*
X122904285Y-104349523D01*
X123056666Y-104311428D01*
X123247142Y-104311428D01*
X123399523Y-104349523D01*
X123475714Y-104387619D01*
X123513809Y-104425714D01*
X123551904Y-104501904D01*
X123551904Y-104578095D01*
X123513809Y-104654285D01*
X123475714Y-104692380D01*
X123399523Y-104730476D01*
X123247142Y-104768571D01*
X123056666Y-104768571D01*
X122904285Y-104730476D01*
X122828095Y-104692380D01*
X122790000Y-104654285D01*
X122751904Y-104578095D01*
X123551904Y-103968571D02*
X122751904Y-103968571D01*
X123551904Y-103511428D02*
X123094761Y-103854285D01*
X122751904Y-103511428D02*
X123209047Y-103968571D01*
X123551904Y-102749523D02*
X123551904Y-103206666D01*
X123551904Y-102978095D02*
X122751904Y-102978095D01*
X122866190Y-103054285D01*
X122942380Y-103130476D01*
X122980476Y-103206666D01*
%TO.C,100pfd1*%
D11*
X119677142Y-109061428D02*
X119724761Y-109109047D01*
X119772380Y-109251904D01*
X119772380Y-109347142D01*
X119724761Y-109490000D01*
X119629523Y-109585238D01*
X119534285Y-109632857D01*
X119343809Y-109680476D01*
X119200952Y-109680476D01*
X119010476Y-109632857D01*
X118915238Y-109585238D01*
X118820000Y-109490000D01*
X118772380Y-109347142D01*
X118772380Y-109251904D01*
X118820000Y-109109047D01*
X118867619Y-109061428D01*
X119867619Y-108870952D02*
X119867619Y-108109047D01*
X119772380Y-107870952D02*
X118772380Y-107870952D01*
X118772380Y-107490000D01*
X118820000Y-107394761D01*
X118867619Y-107347142D01*
X118962857Y-107299523D01*
X119105714Y-107299523D01*
X119200952Y-107347142D01*
X119248571Y-107394761D01*
X119296190Y-107490000D01*
X119296190Y-107870952D01*
X119772380Y-106728095D02*
X119724761Y-106823333D01*
X119677142Y-106870952D01*
X119581904Y-106918571D01*
X119296190Y-106918571D01*
X119200952Y-106870952D01*
X119153333Y-106823333D01*
X119105714Y-106728095D01*
X119105714Y-106585238D01*
X119153333Y-106490000D01*
X119200952Y-106442380D01*
X119296190Y-106394761D01*
X119581904Y-106394761D01*
X119677142Y-106442380D01*
X119724761Y-106490000D01*
X119772380Y-106585238D01*
X119772380Y-106728095D01*
X119772380Y-105823333D02*
X119724761Y-105918571D01*
X119629523Y-105966190D01*
X118772380Y-105966190D01*
X119772380Y-105013809D02*
X119248571Y-105013809D01*
X119153333Y-105061428D01*
X119105714Y-105156666D01*
X119105714Y-105347142D01*
X119153333Y-105442380D01*
X119724761Y-105013809D02*
X119772380Y-105109047D01*
X119772380Y-105347142D01*
X119724761Y-105442380D01*
X119629523Y-105490000D01*
X119534285Y-105490000D01*
X119439047Y-105442380D01*
X119391428Y-105347142D01*
X119391428Y-105109047D01*
X119343809Y-105013809D01*
X119772380Y-104537619D02*
X119105714Y-104537619D01*
X119296190Y-104537619D02*
X119200952Y-104490000D01*
X119153333Y-104442380D01*
X119105714Y-104347142D01*
X119105714Y-104251904D01*
X119772380Y-103918571D02*
X119105714Y-103918571D01*
X118772380Y-103918571D02*
X118820000Y-103966190D01*
X118867619Y-103918571D01*
X118820000Y-103870952D01*
X118772380Y-103918571D01*
X118867619Y-103918571D01*
X119105714Y-103537619D02*
X119105714Y-103013809D01*
X119772380Y-103537619D01*
X119772380Y-103013809D01*
X119724761Y-102251904D02*
X119772380Y-102347142D01*
X119772380Y-102537619D01*
X119724761Y-102632857D01*
X119629523Y-102680476D01*
X119248571Y-102680476D01*
X119153333Y-102632857D01*
X119105714Y-102537619D01*
X119105714Y-102347142D01*
X119153333Y-102251904D01*
X119248571Y-102204285D01*
X119343809Y-102204285D01*
X119439047Y-102680476D01*
X119772380Y-101347142D02*
X118772380Y-101347142D01*
X119724761Y-101347142D02*
X119772380Y-101442380D01*
X119772380Y-101632857D01*
X119724761Y-101728095D01*
X119677142Y-101775714D01*
X119581904Y-101823333D01*
X119296190Y-101823333D01*
X119200952Y-101775714D01*
X119153333Y-101728095D01*
X119105714Y-101632857D01*
X119105714Y-101442380D01*
X119153333Y-101347142D01*
X116022380Y-107823333D02*
X116022380Y-108394761D01*
X116022380Y-108109047D02*
X115022380Y-108109047D01*
X115165238Y-108204285D01*
X115260476Y-108299523D01*
X115308095Y-108394761D01*
X115022380Y-107204285D02*
X115022380Y-107109047D01*
X115070000Y-107013809D01*
X115117619Y-106966190D01*
X115212857Y-106918571D01*
X115403333Y-106870952D01*
X115641428Y-106870952D01*
X115831904Y-106918571D01*
X115927142Y-106966190D01*
X115974761Y-107013809D01*
X116022380Y-107109047D01*
X116022380Y-107204285D01*
X115974761Y-107299523D01*
X115927142Y-107347142D01*
X115831904Y-107394761D01*
X115641428Y-107442380D01*
X115403333Y-107442380D01*
X115212857Y-107394761D01*
X115117619Y-107347142D01*
X115070000Y-107299523D01*
X115022380Y-107204285D01*
X115022380Y-106251904D02*
X115022380Y-106156666D01*
X115070000Y-106061428D01*
X115117619Y-106013809D01*
X115212857Y-105966190D01*
X115403333Y-105918571D01*
X115641428Y-105918571D01*
X115831904Y-105966190D01*
X115927142Y-106013809D01*
X115974761Y-106061428D01*
X116022380Y-106156666D01*
X116022380Y-106251904D01*
X115974761Y-106347142D01*
X115927142Y-106394761D01*
X115831904Y-106442380D01*
X115641428Y-106490000D01*
X115403333Y-106490000D01*
X115212857Y-106442380D01*
X115117619Y-106394761D01*
X115070000Y-106347142D01*
X115022380Y-106251904D01*
X115355714Y-105490000D02*
X116355714Y-105490000D01*
X115403333Y-105490000D02*
X115355714Y-105394761D01*
X115355714Y-105204285D01*
X115403333Y-105109047D01*
X115450952Y-105061428D01*
X115546190Y-105013809D01*
X115831904Y-105013809D01*
X115927142Y-105061428D01*
X115974761Y-105109047D01*
X116022380Y-105204285D01*
X116022380Y-105394761D01*
X115974761Y-105490000D01*
X115355714Y-104728095D02*
X115355714Y-104347142D01*
X116022380Y-104585238D02*
X115165238Y-104585238D01*
X115070000Y-104537619D01*
X115022380Y-104442380D01*
X115022380Y-104347142D01*
X116022380Y-103585238D02*
X115022380Y-103585238D01*
X115974761Y-103585238D02*
X116022380Y-103680476D01*
X116022380Y-103870952D01*
X115974761Y-103966190D01*
X115927142Y-104013809D01*
X115831904Y-104061428D01*
X115546190Y-104061428D01*
X115450952Y-104013809D01*
X115403333Y-103966190D01*
X115355714Y-103870952D01*
X115355714Y-103680476D01*
X115403333Y-103585238D01*
X116022380Y-102585238D02*
X116022380Y-103156666D01*
X116022380Y-102870952D02*
X115022380Y-102870952D01*
X115165238Y-102966190D01*
X115260476Y-103061428D01*
X115308095Y-103156666D01*
%TO.C,100nfd1*%
X118268571Y-90467142D02*
X118220952Y-90514761D01*
X118078095Y-90562380D01*
X117982857Y-90562380D01*
X117840000Y-90514761D01*
X117744761Y-90419523D01*
X117697142Y-90324285D01*
X117649523Y-90133809D01*
X117649523Y-89990952D01*
X117697142Y-89800476D01*
X117744761Y-89705238D01*
X117840000Y-89610000D01*
X117982857Y-89562380D01*
X118078095Y-89562380D01*
X118220952Y-89610000D01*
X118268571Y-89657619D01*
X118459047Y-90657619D02*
X119220952Y-90657619D01*
X119459047Y-90562380D02*
X119459047Y-89562380D01*
X119840000Y-89562380D01*
X119935238Y-89610000D01*
X119982857Y-89657619D01*
X120030476Y-89752857D01*
X120030476Y-89895714D01*
X119982857Y-89990952D01*
X119935238Y-90038571D01*
X119840000Y-90086190D01*
X119459047Y-90086190D01*
X120601904Y-90562380D02*
X120506666Y-90514761D01*
X120459047Y-90467142D01*
X120411428Y-90371904D01*
X120411428Y-90086190D01*
X120459047Y-89990952D01*
X120506666Y-89943333D01*
X120601904Y-89895714D01*
X120744761Y-89895714D01*
X120840000Y-89943333D01*
X120887619Y-89990952D01*
X120935238Y-90086190D01*
X120935238Y-90371904D01*
X120887619Y-90467142D01*
X120840000Y-90514761D01*
X120744761Y-90562380D01*
X120601904Y-90562380D01*
X121506666Y-90562380D02*
X121411428Y-90514761D01*
X121363809Y-90419523D01*
X121363809Y-89562380D01*
X122316190Y-90562380D02*
X122316190Y-90038571D01*
X122268571Y-89943333D01*
X122173333Y-89895714D01*
X121982857Y-89895714D01*
X121887619Y-89943333D01*
X122316190Y-90514761D02*
X122220952Y-90562380D01*
X121982857Y-90562380D01*
X121887619Y-90514761D01*
X121840000Y-90419523D01*
X121840000Y-90324285D01*
X121887619Y-90229047D01*
X121982857Y-90181428D01*
X122220952Y-90181428D01*
X122316190Y-90133809D01*
X122792380Y-90562380D02*
X122792380Y-89895714D01*
X122792380Y-90086190D02*
X122839999Y-89990952D01*
X122887619Y-89943333D01*
X122982857Y-89895714D01*
X123078095Y-89895714D01*
X123411428Y-90562380D02*
X123411428Y-89895714D01*
X123411428Y-89562380D02*
X123363809Y-89610000D01*
X123411428Y-89657619D01*
X123459047Y-89610000D01*
X123411428Y-89562380D01*
X123411428Y-89657619D01*
X123792380Y-89895714D02*
X124316190Y-89895714D01*
X123792380Y-90562380D01*
X124316190Y-90562380D01*
X125078095Y-90514761D02*
X124982857Y-90562380D01*
X124792380Y-90562380D01*
X124697142Y-90514761D01*
X124649523Y-90419523D01*
X124649523Y-90038571D01*
X124697142Y-89943333D01*
X124792380Y-89895714D01*
X124982857Y-89895714D01*
X125078095Y-89943333D01*
X125125714Y-90038571D01*
X125125714Y-90133809D01*
X124649523Y-90229047D01*
X125982857Y-90562380D02*
X125982857Y-89562380D01*
X125982857Y-90514761D02*
X125887619Y-90562380D01*
X125697142Y-90562380D01*
X125601904Y-90514761D01*
X125554285Y-90467142D01*
X125506666Y-90371904D01*
X125506666Y-90086190D01*
X125554285Y-89990952D01*
X125601904Y-89943333D01*
X125697142Y-89895714D01*
X125887619Y-89895714D01*
X125982857Y-89943333D01*
X119506666Y-86812380D02*
X118935238Y-86812380D01*
X119220952Y-86812380D02*
X119220952Y-85812380D01*
X119125714Y-85955238D01*
X119030476Y-86050476D01*
X118935238Y-86098095D01*
X120125714Y-85812380D02*
X120220952Y-85812380D01*
X120316190Y-85860000D01*
X120363809Y-85907619D01*
X120411428Y-86002857D01*
X120459047Y-86193333D01*
X120459047Y-86431428D01*
X120411428Y-86621904D01*
X120363809Y-86717142D01*
X120316190Y-86764761D01*
X120220952Y-86812380D01*
X120125714Y-86812380D01*
X120030476Y-86764761D01*
X119982857Y-86717142D01*
X119935238Y-86621904D01*
X119887619Y-86431428D01*
X119887619Y-86193333D01*
X119935238Y-86002857D01*
X119982857Y-85907619D01*
X120030476Y-85860000D01*
X120125714Y-85812380D01*
X121078095Y-85812380D02*
X121173333Y-85812380D01*
X121268571Y-85860000D01*
X121316190Y-85907619D01*
X121363809Y-86002857D01*
X121411428Y-86193333D01*
X121411428Y-86431428D01*
X121363809Y-86621904D01*
X121316190Y-86717142D01*
X121268571Y-86764761D01*
X121173333Y-86812380D01*
X121078095Y-86812380D01*
X120982857Y-86764761D01*
X120935238Y-86717142D01*
X120887619Y-86621904D01*
X120840000Y-86431428D01*
X120840000Y-86193333D01*
X120887619Y-86002857D01*
X120935238Y-85907619D01*
X120982857Y-85860000D01*
X121078095Y-85812380D01*
X121840000Y-86145714D02*
X121840000Y-86812380D01*
X121840000Y-86240952D02*
X121887619Y-86193333D01*
X121982857Y-86145714D01*
X122125714Y-86145714D01*
X122220952Y-86193333D01*
X122268571Y-86288571D01*
X122268571Y-86812380D01*
X122601904Y-86145714D02*
X122982857Y-86145714D01*
X122744761Y-86812380D02*
X122744761Y-85955238D01*
X122792380Y-85860000D01*
X122887619Y-85812380D01*
X122982857Y-85812380D01*
X123744761Y-86812380D02*
X123744761Y-85812380D01*
X123744761Y-86764761D02*
X123649523Y-86812380D01*
X123459047Y-86812380D01*
X123363809Y-86764761D01*
X123316190Y-86717142D01*
X123268571Y-86621904D01*
X123268571Y-86336190D01*
X123316190Y-86240952D01*
X123363809Y-86193333D01*
X123459047Y-86145714D01*
X123649523Y-86145714D01*
X123744761Y-86193333D01*
X124744761Y-86812380D02*
X124173333Y-86812380D01*
X124459047Y-86812380D02*
X124459047Y-85812380D01*
X124363809Y-85955238D01*
X124268571Y-86050476D01*
X124173333Y-86098095D01*
%TD*%
M02*
