%TF.GenerationSoftware,KiCad,Pcbnew,(5.1.9)-1*%
%TF.CreationDate,2021-03-19T20:09:11+05:30*%
%TF.ProjectId,test2,74657374-322e-46b6-9963-61645f706362,rev?*%
%TF.SameCoordinates,Original*%
%TF.FileFunction,Legend,Top*%
%TF.FilePolarity,Positive*%
%FSLAX46Y46*%
G04 Gerber Fmt 4.6, Leading zero omitted, Abs format (unit mm)*
G04 Created by KiCad (PCBNEW (5.1.9)-1) date 2021-03-19 20:09:11*
%MOMM*%
%LPD*%
G01*
G04 APERTURE LIST*
%ADD10C,0.150000*%
%ADD11C,0.120000*%
G04 APERTURE END LIST*
D10*
X111682380Y-77922380D02*
X111682380Y-76922380D01*
X111920476Y-76922380D01*
X112063333Y-76970000D01*
X112158571Y-77065238D01*
X112206190Y-77160476D01*
X112253809Y-77350952D01*
X112253809Y-77493809D01*
X112206190Y-77684285D01*
X112158571Y-77779523D01*
X112063333Y-77874761D01*
X111920476Y-77922380D01*
X111682380Y-77922380D01*
X113253809Y-77827142D02*
X113206190Y-77874761D01*
X113063333Y-77922380D01*
X112968095Y-77922380D01*
X112825238Y-77874761D01*
X112730000Y-77779523D01*
X112682380Y-77684285D01*
X112634761Y-77493809D01*
X112634761Y-77350952D01*
X112682380Y-77160476D01*
X112730000Y-77065238D01*
X112825238Y-76970000D01*
X112968095Y-76922380D01*
X113063333Y-76922380D01*
X113206190Y-76970000D01*
X113253809Y-77017619D01*
X113444285Y-78017619D02*
X114206190Y-78017619D01*
X114444285Y-77922380D02*
X114444285Y-77255714D01*
X114444285Y-77350952D02*
X114491904Y-77303333D01*
X114587142Y-77255714D01*
X114730000Y-77255714D01*
X114825238Y-77303333D01*
X114872857Y-77398571D01*
X114872857Y-77922380D01*
X114872857Y-77398571D02*
X114920476Y-77303333D01*
X115015714Y-77255714D01*
X115158571Y-77255714D01*
X115253809Y-77303333D01*
X115301428Y-77398571D01*
X115301428Y-77922380D01*
X115920476Y-77922380D02*
X115825238Y-77874761D01*
X115777619Y-77827142D01*
X115730000Y-77731904D01*
X115730000Y-77446190D01*
X115777619Y-77350952D01*
X115825238Y-77303333D01*
X115920476Y-77255714D01*
X116063333Y-77255714D01*
X116158571Y-77303333D01*
X116206190Y-77350952D01*
X116253809Y-77446190D01*
X116253809Y-77731904D01*
X116206190Y-77827142D01*
X116158571Y-77874761D01*
X116063333Y-77922380D01*
X115920476Y-77922380D01*
X116539523Y-77255714D02*
X116920476Y-77255714D01*
X116682380Y-76922380D02*
X116682380Y-77779523D01*
X116730000Y-77874761D01*
X116825238Y-77922380D01*
X116920476Y-77922380D01*
X117396666Y-77922380D02*
X117301428Y-77874761D01*
X117253809Y-77827142D01*
X117206190Y-77731904D01*
X117206190Y-77446190D01*
X117253809Y-77350952D01*
X117301428Y-77303333D01*
X117396666Y-77255714D01*
X117539523Y-77255714D01*
X117634761Y-77303333D01*
X117682380Y-77350952D01*
X117730000Y-77446190D01*
X117730000Y-77731904D01*
X117682380Y-77827142D01*
X117634761Y-77874761D01*
X117539523Y-77922380D01*
X117396666Y-77922380D01*
X118158571Y-77922380D02*
X118158571Y-77255714D01*
X118158571Y-77446190D02*
X118206190Y-77350952D01*
X118253809Y-77303333D01*
X118349047Y-77255714D01*
X118444285Y-77255714D01*
X119491904Y-77874761D02*
X119587142Y-77922380D01*
X119777619Y-77922380D01*
X119872857Y-77874761D01*
X119920476Y-77779523D01*
X119920476Y-77731904D01*
X119872857Y-77636666D01*
X119777619Y-77589047D01*
X119634761Y-77589047D01*
X119539523Y-77541428D01*
X119491904Y-77446190D01*
X119491904Y-77398571D01*
X119539523Y-77303333D01*
X119634761Y-77255714D01*
X119777619Y-77255714D01*
X119872857Y-77303333D01*
X120349047Y-77255714D02*
X120349047Y-78255714D01*
X120349047Y-77303333D02*
X120444285Y-77255714D01*
X120634761Y-77255714D01*
X120730000Y-77303333D01*
X120777619Y-77350952D01*
X120825238Y-77446190D01*
X120825238Y-77731904D01*
X120777619Y-77827142D01*
X120730000Y-77874761D01*
X120634761Y-77922380D01*
X120444285Y-77922380D01*
X120349047Y-77874761D01*
X121634761Y-77874761D02*
X121539523Y-77922380D01*
X121349047Y-77922380D01*
X121253809Y-77874761D01*
X121206190Y-77779523D01*
X121206190Y-77398571D01*
X121253809Y-77303333D01*
X121349047Y-77255714D01*
X121539523Y-77255714D01*
X121634761Y-77303333D01*
X121682380Y-77398571D01*
X121682380Y-77493809D01*
X121206190Y-77589047D01*
X122491904Y-77874761D02*
X122396666Y-77922380D01*
X122206190Y-77922380D01*
X122110952Y-77874761D01*
X122063333Y-77779523D01*
X122063333Y-77398571D01*
X122110952Y-77303333D01*
X122206190Y-77255714D01*
X122396666Y-77255714D01*
X122491904Y-77303333D01*
X122539523Y-77398571D01*
X122539523Y-77493809D01*
X122063333Y-77589047D01*
X123396666Y-77922380D02*
X123396666Y-76922380D01*
X123396666Y-77874761D02*
X123301428Y-77922380D01*
X123110952Y-77922380D01*
X123015714Y-77874761D01*
X122968095Y-77827142D01*
X122920476Y-77731904D01*
X122920476Y-77446190D01*
X122968095Y-77350952D01*
X123015714Y-77303333D01*
X123110952Y-77255714D01*
X123301428Y-77255714D01*
X123396666Y-77303333D01*
X125063333Y-77874761D02*
X124968095Y-77922380D01*
X124777619Y-77922380D01*
X124682380Y-77874761D01*
X124634761Y-77827142D01*
X124587142Y-77731904D01*
X124587142Y-77446190D01*
X124634761Y-77350952D01*
X124682380Y-77303333D01*
X124777619Y-77255714D01*
X124968095Y-77255714D01*
X125063333Y-77303333D01*
X125634761Y-77922380D02*
X125539523Y-77874761D01*
X125491904Y-77827142D01*
X125444285Y-77731904D01*
X125444285Y-77446190D01*
X125491904Y-77350952D01*
X125539523Y-77303333D01*
X125634761Y-77255714D01*
X125777619Y-77255714D01*
X125872857Y-77303333D01*
X125920476Y-77350952D01*
X125968095Y-77446190D01*
X125968095Y-77731904D01*
X125920476Y-77827142D01*
X125872857Y-77874761D01*
X125777619Y-77922380D01*
X125634761Y-77922380D01*
X126396666Y-77255714D02*
X126396666Y-77922380D01*
X126396666Y-77350952D02*
X126444285Y-77303333D01*
X126539523Y-77255714D01*
X126682380Y-77255714D01*
X126777619Y-77303333D01*
X126825238Y-77398571D01*
X126825238Y-77922380D01*
X127158571Y-77255714D02*
X127539523Y-77255714D01*
X127301428Y-76922380D02*
X127301428Y-77779523D01*
X127349047Y-77874761D01*
X127444285Y-77922380D01*
X127539523Y-77922380D01*
X127872857Y-77922380D02*
X127872857Y-77255714D01*
X127872857Y-77446190D02*
X127920476Y-77350952D01*
X127968095Y-77303333D01*
X128063333Y-77255714D01*
X128158571Y-77255714D01*
X128634761Y-77922380D02*
X128539523Y-77874761D01*
X128491904Y-77827142D01*
X128444285Y-77731904D01*
X128444285Y-77446190D01*
X128491904Y-77350952D01*
X128539523Y-77303333D01*
X128634761Y-77255714D01*
X128777619Y-77255714D01*
X128872857Y-77303333D01*
X128920476Y-77350952D01*
X128968095Y-77446190D01*
X128968095Y-77731904D01*
X128920476Y-77827142D01*
X128872857Y-77874761D01*
X128777619Y-77922380D01*
X128634761Y-77922380D01*
X129539523Y-77922380D02*
X129444285Y-77874761D01*
X129396666Y-77779523D01*
X129396666Y-76922380D01*
X131110952Y-77255714D02*
X131110952Y-77922380D01*
X130682380Y-77255714D02*
X130682380Y-77779523D01*
X130730000Y-77874761D01*
X130825238Y-77922380D01*
X130968095Y-77922380D01*
X131063333Y-77874761D01*
X131110952Y-77827142D01*
X131539523Y-77874761D02*
X131634761Y-77922380D01*
X131825238Y-77922380D01*
X131920476Y-77874761D01*
X131968095Y-77779523D01*
X131968095Y-77731904D01*
X131920476Y-77636666D01*
X131825238Y-77589047D01*
X131682380Y-77589047D01*
X131587142Y-77541428D01*
X131539523Y-77446190D01*
X131539523Y-77398571D01*
X131587142Y-77303333D01*
X131682380Y-77255714D01*
X131825238Y-77255714D01*
X131920476Y-77303333D01*
X132396666Y-77922380D02*
X132396666Y-77255714D01*
X132396666Y-76922380D02*
X132349047Y-76970000D01*
X132396666Y-77017619D01*
X132444285Y-76970000D01*
X132396666Y-76922380D01*
X132396666Y-77017619D01*
X132872857Y-77255714D02*
X132872857Y-77922380D01*
X132872857Y-77350952D02*
X132920476Y-77303333D01*
X133015714Y-77255714D01*
X133158571Y-77255714D01*
X133253809Y-77303333D01*
X133301428Y-77398571D01*
X133301428Y-77922380D01*
X134206190Y-77255714D02*
X134206190Y-78065238D01*
X134158571Y-78160476D01*
X134110952Y-78208095D01*
X134015714Y-78255714D01*
X133872857Y-78255714D01*
X133777619Y-78208095D01*
X134206190Y-77874761D02*
X134110952Y-77922380D01*
X133920476Y-77922380D01*
X133825238Y-77874761D01*
X133777619Y-77827142D01*
X133730000Y-77731904D01*
X133730000Y-77446190D01*
X133777619Y-77350952D01*
X133825238Y-77303333D01*
X133920476Y-77255714D01*
X134110952Y-77255714D01*
X134206190Y-77303333D01*
X135920476Y-77922380D02*
X135444285Y-77922380D01*
X135444285Y-76922380D01*
X136253809Y-77922380D02*
X136253809Y-76922380D01*
X136587142Y-77636666D01*
X136920476Y-76922380D01*
X136920476Y-77922380D01*
X137872857Y-76922380D02*
X137396666Y-76922380D01*
X137349047Y-77398571D01*
X137396666Y-77350952D01*
X137491904Y-77303333D01*
X137730000Y-77303333D01*
X137825238Y-77350952D01*
X137872857Y-77398571D01*
X137920476Y-77493809D01*
X137920476Y-77731904D01*
X137872857Y-77827142D01*
X137825238Y-77874761D01*
X137730000Y-77922380D01*
X137491904Y-77922380D01*
X137396666Y-77874761D01*
X137349047Y-77827142D01*
X138825238Y-76922380D02*
X138349047Y-76922380D01*
X138301428Y-77398571D01*
X138349047Y-77350952D01*
X138444285Y-77303333D01*
X138682380Y-77303333D01*
X138777619Y-77350952D01*
X138825238Y-77398571D01*
X138872857Y-77493809D01*
X138872857Y-77731904D01*
X138825238Y-77827142D01*
X138777619Y-77874761D01*
X138682380Y-77922380D01*
X138444285Y-77922380D01*
X138349047Y-77874761D01*
X138301428Y-77827142D01*
X139777619Y-76922380D02*
X139301428Y-76922380D01*
X139253809Y-77398571D01*
X139301428Y-77350952D01*
X139396666Y-77303333D01*
X139634761Y-77303333D01*
X139730000Y-77350952D01*
X139777619Y-77398571D01*
X139825238Y-77493809D01*
X139825238Y-77731904D01*
X139777619Y-77827142D01*
X139730000Y-77874761D01*
X139634761Y-77922380D01*
X139396666Y-77922380D01*
X139301428Y-77874761D01*
X139253809Y-77827142D01*
D11*
%TO.C,RV1*%
X99159000Y-77050000D02*
X109200000Y-77050000D01*
X107550000Y-89290000D02*
X109200000Y-89290000D01*
X105051000Y-89290000D02*
X105810000Y-89290000D01*
X102551000Y-89290000D02*
X103310000Y-89290000D01*
X99159000Y-89290000D02*
X100809000Y-89290000D01*
X109200000Y-80986000D02*
X109200000Y-77050000D01*
X109200000Y-89290000D02*
X109200000Y-85353000D01*
X99159000Y-80986000D02*
X99159000Y-77050000D01*
X99159000Y-89290000D02*
X99159000Y-85353000D01*
%TO.C,vcc1*%
X133120000Y-89150000D02*
X133120000Y-81050000D01*
X136120000Y-81050000D02*
X136120000Y-89150000D01*
X133120000Y-89150000D02*
X136120000Y-89150000D01*
X136120000Y-81050000D02*
X133120000Y-81050000D01*
%TO.C,U1*%
X109240000Y-104140000D02*
X109240000Y-100690000D01*
X109240000Y-104140000D02*
X109240000Y-106090000D01*
X104120000Y-104140000D02*
X104120000Y-102190000D01*
X104120000Y-104140000D02*
X104120000Y-106090000D01*
%TO.C,Q1*%
X119920000Y-94669000D02*
X121430000Y-94669000D01*
X119920000Y-98370000D02*
X121430000Y-98370000D01*
X121430000Y-101640000D02*
X121430000Y-91400000D01*
X119920000Y-91400000D02*
X124561000Y-91400000D01*
X119920000Y-101640000D02*
X124561000Y-101640000D01*
X124561000Y-101640000D02*
X124561000Y-91400000D01*
X119920000Y-101640000D02*
X119920000Y-91400000D01*
%TO.C,dcmotor1*%
X136120000Y-95000000D02*
X136120000Y-103100000D01*
X133120000Y-103100000D02*
X133120000Y-95000000D01*
X136120000Y-95000000D02*
X133120000Y-95000000D01*
X133120000Y-103100000D02*
X136120000Y-103100000D01*
%TO.C,D3*%
X126800000Y-98460000D02*
X129740000Y-98460000D01*
X126800000Y-98220000D02*
X129740000Y-98220000D01*
X126800000Y-98340000D02*
X129740000Y-98340000D01*
X128270000Y-92780000D02*
X128270000Y-93800000D01*
X128270000Y-100260000D02*
X128270000Y-99240000D01*
X126800000Y-93800000D02*
X126800000Y-99240000D01*
X129740000Y-93800000D02*
X126800000Y-93800000D01*
X129740000Y-99240000D02*
X129740000Y-93800000D01*
X126800000Y-99240000D02*
X129740000Y-99240000D01*
%TO.C,D2*%
X107350000Y-99260000D02*
X107350000Y-96320000D01*
X107110000Y-99260000D02*
X107110000Y-96320000D01*
X107230000Y-99260000D02*
X107230000Y-96320000D01*
X101670000Y-97790000D02*
X102690000Y-97790000D01*
X109150000Y-97790000D02*
X108130000Y-97790000D01*
X102690000Y-99260000D02*
X108130000Y-99260000D01*
X102690000Y-96320000D02*
X102690000Y-99260000D01*
X108130000Y-96320000D02*
X102690000Y-96320000D01*
X108130000Y-99260000D02*
X108130000Y-96320000D01*
%TO.C,D1*%
X111090000Y-92510000D02*
X111090000Y-95450000D01*
X111330000Y-92510000D02*
X111330000Y-95450000D01*
X111210000Y-92510000D02*
X111210000Y-95450000D01*
X116770000Y-93980000D02*
X115750000Y-93980000D01*
X109290000Y-93980000D02*
X110310000Y-93980000D01*
X115750000Y-92510000D02*
X110310000Y-92510000D01*
X115750000Y-95450000D02*
X115750000Y-92510000D01*
X110310000Y-95450000D02*
X115750000Y-95450000D01*
X110310000Y-92510000D02*
X110310000Y-95450000D01*
%TO.C,10K1*%
X124100000Y-106137064D02*
X124100000Y-104682936D01*
X122280000Y-106137064D02*
X122280000Y-104682936D01*
%TO.C,100pfd1*%
X116206000Y-101620000D02*
X118190000Y-101620000D01*
X112950000Y-101620000D02*
X114934000Y-101620000D01*
X116206000Y-109360000D02*
X118190000Y-109360000D01*
X112950000Y-109360000D02*
X114934000Y-109360000D01*
X118190000Y-109360000D02*
X118190000Y-101620000D01*
X112950000Y-109360000D02*
X112950000Y-101620000D01*
%TO.C,100nfd1*%
X125710000Y-86996000D02*
X125710000Y-88980000D01*
X125710000Y-83740000D02*
X125710000Y-85724000D01*
X117970000Y-86996000D02*
X117970000Y-88980000D01*
X117970000Y-83740000D02*
X117970000Y-85724000D01*
X117970000Y-88980000D02*
X125710000Y-88980000D01*
X117970000Y-83740000D02*
X125710000Y-83740000D01*
%TO.C,REF\u002A\u002A*%
D10*
X132016666Y-105972380D02*
X131683333Y-105496190D01*
X131445238Y-105972380D02*
X131445238Y-104972380D01*
X131826190Y-104972380D01*
X131921428Y-105020000D01*
X131969047Y-105067619D01*
X132016666Y-105162857D01*
X132016666Y-105305714D01*
X131969047Y-105400952D01*
X131921428Y-105448571D01*
X131826190Y-105496190D01*
X131445238Y-105496190D01*
X132445238Y-105448571D02*
X132778571Y-105448571D01*
X132921428Y-105972380D02*
X132445238Y-105972380D01*
X132445238Y-104972380D01*
X132921428Y-104972380D01*
X133683333Y-105448571D02*
X133350000Y-105448571D01*
X133350000Y-105972380D02*
X133350000Y-104972380D01*
X133826190Y-104972380D01*
X134350000Y-104972380D02*
X134350000Y-105210476D01*
X134111904Y-105115238D02*
X134350000Y-105210476D01*
X134588095Y-105115238D01*
X134207142Y-105400952D02*
X134350000Y-105210476D01*
X134492857Y-105400952D01*
X135111904Y-104972380D02*
X135111904Y-105210476D01*
X134873809Y-105115238D02*
X135111904Y-105210476D01*
X135350000Y-105115238D01*
X134969047Y-105400952D02*
X135111904Y-105210476D01*
X135254761Y-105400952D01*
%TO.C,RV1*%
X96982380Y-84715238D02*
X96506190Y-85048571D01*
X96982380Y-85286666D02*
X95982380Y-85286666D01*
X95982380Y-84905714D01*
X96030000Y-84810476D01*
X96077619Y-84762857D01*
X96172857Y-84715238D01*
X96315714Y-84715238D01*
X96410952Y-84762857D01*
X96458571Y-84810476D01*
X96506190Y-84905714D01*
X96506190Y-85286666D01*
X95982380Y-84429523D02*
X96982380Y-84096190D01*
X95982380Y-83762857D01*
X96982380Y-82905714D02*
X96982380Y-83477142D01*
X96982380Y-83191428D02*
X95982380Y-83191428D01*
X96125238Y-83286666D01*
X96220476Y-83381904D01*
X96268095Y-83477142D01*
X112282380Y-85191428D02*
X112282380Y-85762857D01*
X112282380Y-85477142D02*
X111282380Y-85477142D01*
X111425238Y-85572380D01*
X111520476Y-85667619D01*
X111568095Y-85762857D01*
X111282380Y-84572380D02*
X111282380Y-84477142D01*
X111330000Y-84381904D01*
X111377619Y-84334285D01*
X111472857Y-84286666D01*
X111663333Y-84239047D01*
X111901428Y-84239047D01*
X112091904Y-84286666D01*
X112187142Y-84334285D01*
X112234761Y-84381904D01*
X112282380Y-84477142D01*
X112282380Y-84572380D01*
X112234761Y-84667619D01*
X112187142Y-84715238D01*
X112091904Y-84762857D01*
X111901428Y-84810476D01*
X111663333Y-84810476D01*
X111472857Y-84762857D01*
X111377619Y-84715238D01*
X111330000Y-84667619D01*
X111282380Y-84572380D01*
X111282380Y-83620000D02*
X111282380Y-83524761D01*
X111330000Y-83429523D01*
X111377619Y-83381904D01*
X111472857Y-83334285D01*
X111663333Y-83286666D01*
X111901428Y-83286666D01*
X112091904Y-83334285D01*
X112187142Y-83381904D01*
X112234761Y-83429523D01*
X112282380Y-83524761D01*
X112282380Y-83620000D01*
X112234761Y-83715238D01*
X112187142Y-83762857D01*
X112091904Y-83810476D01*
X111901428Y-83858095D01*
X111663333Y-83858095D01*
X111472857Y-83810476D01*
X111377619Y-83762857D01*
X111330000Y-83715238D01*
X111282380Y-83620000D01*
X112282380Y-82858095D02*
X111282380Y-82858095D01*
X111901428Y-82762857D02*
X112282380Y-82477142D01*
X111615714Y-82477142D02*
X111996666Y-82858095D01*
%TO.C,vcc1*%
X136905714Y-86661428D02*
X137572380Y-86423333D01*
X136905714Y-86185238D01*
X137524761Y-85375714D02*
X137572380Y-85470952D01*
X137572380Y-85661428D01*
X137524761Y-85756666D01*
X137477142Y-85804285D01*
X137381904Y-85851904D01*
X137096190Y-85851904D01*
X137000952Y-85804285D01*
X136953333Y-85756666D01*
X136905714Y-85661428D01*
X136905714Y-85470952D01*
X136953333Y-85375714D01*
X137524761Y-84518571D02*
X137572380Y-84613809D01*
X137572380Y-84804285D01*
X137524761Y-84899523D01*
X137477142Y-84947142D01*
X137381904Y-84994761D01*
X137096190Y-84994761D01*
X137000952Y-84947142D01*
X136953333Y-84899523D01*
X136905714Y-84804285D01*
X136905714Y-84613809D01*
X136953333Y-84518571D01*
X137572380Y-83566190D02*
X137572380Y-84137619D01*
X137572380Y-83851904D02*
X136572380Y-83851904D01*
X136715238Y-83947142D01*
X136810476Y-84042380D01*
X136858095Y-84137619D01*
X132222857Y-90899523D02*
X132222857Y-89375714D01*
X132984761Y-90137619D02*
X131460952Y-90137619D01*
X132222857Y-80804285D02*
X132222857Y-79280476D01*
%TO.C,U1*%
X109532380Y-104901904D02*
X110341904Y-104901904D01*
X110437142Y-104854285D01*
X110484761Y-104806666D01*
X110532380Y-104711428D01*
X110532380Y-104520952D01*
X110484761Y-104425714D01*
X110437142Y-104378095D01*
X110341904Y-104330476D01*
X109532380Y-104330476D01*
X110532380Y-103330476D02*
X110532380Y-103901904D01*
X110532380Y-103616190D02*
X109532380Y-103616190D01*
X109675238Y-103711428D01*
X109770476Y-103806666D01*
X109818095Y-103901904D01*
X103732380Y-105830476D02*
X103732380Y-106306666D01*
X102732380Y-106306666D01*
X103732380Y-105497142D02*
X102732380Y-105497142D01*
X103446666Y-105163809D01*
X102732380Y-104830476D01*
X103732380Y-104830476D01*
X102732380Y-103878095D02*
X102732380Y-104354285D01*
X103208571Y-104401904D01*
X103160952Y-104354285D01*
X103113333Y-104259047D01*
X103113333Y-104020952D01*
X103160952Y-103925714D01*
X103208571Y-103878095D01*
X103303809Y-103830476D01*
X103541904Y-103830476D01*
X103637142Y-103878095D01*
X103684761Y-103925714D01*
X103732380Y-104020952D01*
X103732380Y-104259047D01*
X103684761Y-104354285D01*
X103637142Y-104401904D01*
X102732380Y-102925714D02*
X102732380Y-103401904D01*
X103208571Y-103449523D01*
X103160952Y-103401904D01*
X103113333Y-103306666D01*
X103113333Y-103068571D01*
X103160952Y-102973333D01*
X103208571Y-102925714D01*
X103303809Y-102878095D01*
X103541904Y-102878095D01*
X103637142Y-102925714D01*
X103684761Y-102973333D01*
X103732380Y-103068571D01*
X103732380Y-103306666D01*
X103684761Y-103401904D01*
X103637142Y-103449523D01*
X102732380Y-101973333D02*
X102732380Y-102449523D01*
X103208571Y-102497142D01*
X103160952Y-102449523D01*
X103113333Y-102354285D01*
X103113333Y-102116190D01*
X103160952Y-102020952D01*
X103208571Y-101973333D01*
X103303809Y-101925714D01*
X103541904Y-101925714D01*
X103637142Y-101973333D01*
X103684761Y-102020952D01*
X103732380Y-102116190D01*
X103732380Y-102354285D01*
X103684761Y-102449523D01*
X103637142Y-102497142D01*
%TO.C,Q1*%
X119467619Y-96615238D02*
X119420000Y-96710476D01*
X119324761Y-96805714D01*
X119181904Y-96948571D01*
X119134285Y-97043809D01*
X119134285Y-97139047D01*
X119372380Y-97091428D02*
X119324761Y-97186666D01*
X119229523Y-97281904D01*
X119039047Y-97329523D01*
X118705714Y-97329523D01*
X118515238Y-97281904D01*
X118420000Y-97186666D01*
X118372380Y-97091428D01*
X118372380Y-96900952D01*
X118420000Y-96805714D01*
X118515238Y-96710476D01*
X118705714Y-96662857D01*
X119039047Y-96662857D01*
X119229523Y-96710476D01*
X119324761Y-96805714D01*
X119372380Y-96900952D01*
X119372380Y-97091428D01*
X119372380Y-95710476D02*
X119372380Y-96281904D01*
X119372380Y-95996190D02*
X118372380Y-95996190D01*
X118515238Y-96091428D01*
X118610476Y-96186666D01*
X118658095Y-96281904D01*
X121882380Y-101250952D02*
X120882380Y-101250952D01*
X121882380Y-100203333D02*
X121406190Y-100536666D01*
X121882380Y-100774761D02*
X120882380Y-100774761D01*
X120882380Y-100393809D01*
X120930000Y-100298571D01*
X120977619Y-100250952D01*
X121072857Y-100203333D01*
X121215714Y-100203333D01*
X121310952Y-100250952D01*
X121358571Y-100298571D01*
X121406190Y-100393809D01*
X121406190Y-100774761D01*
X121358571Y-99441428D02*
X121358571Y-99774761D01*
X121882380Y-99774761D02*
X120882380Y-99774761D01*
X120882380Y-99298571D01*
X120882380Y-98441428D02*
X120882380Y-98917619D01*
X121358571Y-98965238D01*
X121310952Y-98917619D01*
X121263333Y-98822380D01*
X121263333Y-98584285D01*
X121310952Y-98489047D01*
X121358571Y-98441428D01*
X121453809Y-98393809D01*
X121691904Y-98393809D01*
X121787142Y-98441428D01*
X121834761Y-98489047D01*
X121882380Y-98584285D01*
X121882380Y-98822380D01*
X121834761Y-98917619D01*
X121787142Y-98965238D01*
X121215714Y-97536666D02*
X121882380Y-97536666D01*
X120834761Y-97774761D02*
X121549047Y-98012857D01*
X121549047Y-97393809D01*
X120882380Y-96822380D02*
X120882380Y-96727142D01*
X120930000Y-96631904D01*
X120977619Y-96584285D01*
X121072857Y-96536666D01*
X121263333Y-96489047D01*
X121501428Y-96489047D01*
X121691904Y-96536666D01*
X121787142Y-96584285D01*
X121834761Y-96631904D01*
X121882380Y-96727142D01*
X121882380Y-96822380D01*
X121834761Y-96917619D01*
X121787142Y-96965238D01*
X121691904Y-97012857D01*
X121501428Y-97060476D01*
X121263333Y-97060476D01*
X121072857Y-97012857D01*
X120977619Y-96965238D01*
X120930000Y-96917619D01*
X120882380Y-96822380D01*
X121882380Y-96060476D02*
X120882380Y-96060476D01*
X121882380Y-95489047D01*
X120882380Y-95489047D01*
%TO.C,dcmotor1*%
X140152380Y-101917142D02*
X139152380Y-101917142D01*
X140104761Y-101917142D02*
X140152380Y-102012380D01*
X140152380Y-102202857D01*
X140104761Y-102298095D01*
X140057142Y-102345714D01*
X139961904Y-102393333D01*
X139676190Y-102393333D01*
X139580952Y-102345714D01*
X139533333Y-102298095D01*
X139485714Y-102202857D01*
X139485714Y-102012380D01*
X139533333Y-101917142D01*
X140104761Y-101012380D02*
X140152380Y-101107619D01*
X140152380Y-101298095D01*
X140104761Y-101393333D01*
X140057142Y-101440952D01*
X139961904Y-101488571D01*
X139676190Y-101488571D01*
X139580952Y-101440952D01*
X139533333Y-101393333D01*
X139485714Y-101298095D01*
X139485714Y-101107619D01*
X139533333Y-101012380D01*
X140152380Y-100583809D02*
X139485714Y-100583809D01*
X139580952Y-100583809D02*
X139533333Y-100536190D01*
X139485714Y-100440952D01*
X139485714Y-100298095D01*
X139533333Y-100202857D01*
X139628571Y-100155238D01*
X140152380Y-100155238D01*
X139628571Y-100155238D02*
X139533333Y-100107619D01*
X139485714Y-100012380D01*
X139485714Y-99869523D01*
X139533333Y-99774285D01*
X139628571Y-99726666D01*
X140152380Y-99726666D01*
X140152380Y-99107619D02*
X140104761Y-99202857D01*
X140057142Y-99250476D01*
X139961904Y-99298095D01*
X139676190Y-99298095D01*
X139580952Y-99250476D01*
X139533333Y-99202857D01*
X139485714Y-99107619D01*
X139485714Y-98964761D01*
X139533333Y-98869523D01*
X139580952Y-98821904D01*
X139676190Y-98774285D01*
X139961904Y-98774285D01*
X140057142Y-98821904D01*
X140104761Y-98869523D01*
X140152380Y-98964761D01*
X140152380Y-99107619D01*
X139485714Y-98488571D02*
X139485714Y-98107619D01*
X139152380Y-98345714D02*
X140009523Y-98345714D01*
X140104761Y-98298095D01*
X140152380Y-98202857D01*
X140152380Y-98107619D01*
X140152380Y-97631428D02*
X140104761Y-97726666D01*
X140057142Y-97774285D01*
X139961904Y-97821904D01*
X139676190Y-97821904D01*
X139580952Y-97774285D01*
X139533333Y-97726666D01*
X139485714Y-97631428D01*
X139485714Y-97488571D01*
X139533333Y-97393333D01*
X139580952Y-97345714D01*
X139676190Y-97298095D01*
X139961904Y-97298095D01*
X140057142Y-97345714D01*
X140104761Y-97393333D01*
X140152380Y-97488571D01*
X140152380Y-97631428D01*
X140152380Y-96869523D02*
X139485714Y-96869523D01*
X139676190Y-96869523D02*
X139580952Y-96821904D01*
X139533333Y-96774285D01*
X139485714Y-96679047D01*
X139485714Y-96583809D01*
X140152380Y-95726666D02*
X140152380Y-96298095D01*
X140152380Y-96012380D02*
X139152380Y-96012380D01*
X139295238Y-96107619D01*
X139390476Y-96202857D01*
X139438095Y-96298095D01*
X137302857Y-103345714D02*
X137302857Y-101821904D01*
X138064761Y-102583809D02*
X136540952Y-102583809D01*
X137302857Y-96298095D02*
X137302857Y-94774285D01*
%TO.C,D3*%
X126252380Y-97258095D02*
X125252380Y-97258095D01*
X125252380Y-97020000D01*
X125300000Y-96877142D01*
X125395238Y-96781904D01*
X125490476Y-96734285D01*
X125680952Y-96686666D01*
X125823809Y-96686666D01*
X126014285Y-96734285D01*
X126109523Y-96781904D01*
X126204761Y-96877142D01*
X126252380Y-97020000D01*
X126252380Y-97258095D01*
X125252380Y-96353333D02*
X125252380Y-95734285D01*
X125633333Y-96067619D01*
X125633333Y-95924761D01*
X125680952Y-95829523D01*
X125728571Y-95781904D01*
X125823809Y-95734285D01*
X126061904Y-95734285D01*
X126157142Y-95781904D01*
X126204761Y-95829523D01*
X126252380Y-95924761D01*
X126252380Y-96210476D01*
X126204761Y-96305714D01*
X126157142Y-96353333D01*
X131192380Y-98662857D02*
X131192380Y-99234285D01*
X131192380Y-98948571D02*
X130192380Y-98948571D01*
X130335238Y-99043809D01*
X130430476Y-99139047D01*
X130478095Y-99234285D01*
X131192380Y-98234285D02*
X130192380Y-98234285D01*
X131192380Y-97662857D01*
X130192380Y-97662857D01*
X130525714Y-96758095D02*
X131192380Y-96758095D01*
X130144761Y-96996190D02*
X130859047Y-97234285D01*
X130859047Y-96615238D01*
X130192380Y-96043809D02*
X130192380Y-95948571D01*
X130240000Y-95853333D01*
X130287619Y-95805714D01*
X130382857Y-95758095D01*
X130573333Y-95710476D01*
X130811428Y-95710476D01*
X131001904Y-95758095D01*
X131097142Y-95805714D01*
X131144761Y-95853333D01*
X131192380Y-95948571D01*
X131192380Y-96043809D01*
X131144761Y-96139047D01*
X131097142Y-96186666D01*
X131001904Y-96234285D01*
X130811428Y-96281904D01*
X130573333Y-96281904D01*
X130382857Y-96234285D01*
X130287619Y-96186666D01*
X130240000Y-96139047D01*
X130192380Y-96043809D01*
X130192380Y-95091428D02*
X130192380Y-94996190D01*
X130240000Y-94900952D01*
X130287619Y-94853333D01*
X130382857Y-94805714D01*
X130573333Y-94758095D01*
X130811428Y-94758095D01*
X131001904Y-94805714D01*
X131097142Y-94853333D01*
X131144761Y-94900952D01*
X131192380Y-94996190D01*
X131192380Y-95091428D01*
X131144761Y-95186666D01*
X131097142Y-95234285D01*
X131001904Y-95281904D01*
X130811428Y-95329523D01*
X130573333Y-95329523D01*
X130382857Y-95281904D01*
X130287619Y-95234285D01*
X130240000Y-95186666D01*
X130192380Y-95091428D01*
X130192380Y-94424761D02*
X130192380Y-93758095D01*
X131192380Y-94186666D01*
X126622380Y-101861904D02*
X125622380Y-101861904D01*
X126622380Y-101290476D02*
X126050952Y-101719047D01*
X125622380Y-101290476D02*
X126193809Y-101861904D01*
%TO.C,D2*%
X104671904Y-100712380D02*
X104671904Y-99712380D01*
X104910000Y-99712380D01*
X105052857Y-99760000D01*
X105148095Y-99855238D01*
X105195714Y-99950476D01*
X105243333Y-100140952D01*
X105243333Y-100283809D01*
X105195714Y-100474285D01*
X105148095Y-100569523D01*
X105052857Y-100664761D01*
X104910000Y-100712380D01*
X104671904Y-100712380D01*
X105624285Y-99807619D02*
X105671904Y-99760000D01*
X105767142Y-99712380D01*
X106005238Y-99712380D01*
X106100476Y-99760000D01*
X106148095Y-99807619D01*
X106195714Y-99902857D01*
X106195714Y-99998095D01*
X106148095Y-100140952D01*
X105576666Y-100712380D01*
X106195714Y-100712380D01*
X110228095Y-100342380D02*
X110228095Y-99342380D01*
X110799523Y-100342380D02*
X110370952Y-99770952D01*
X110799523Y-99342380D02*
X110228095Y-99913809D01*
%TO.C,D1*%
X112291904Y-91962380D02*
X112291904Y-90962380D01*
X112530000Y-90962380D01*
X112672857Y-91010000D01*
X112768095Y-91105238D01*
X112815714Y-91200476D01*
X112863333Y-91390952D01*
X112863333Y-91533809D01*
X112815714Y-91724285D01*
X112768095Y-91819523D01*
X112672857Y-91914761D01*
X112530000Y-91962380D01*
X112291904Y-91962380D01*
X113815714Y-91962380D02*
X113244285Y-91962380D01*
X113530000Y-91962380D02*
X113530000Y-90962380D01*
X113434761Y-91105238D01*
X113339523Y-91200476D01*
X113244285Y-91248095D01*
X107688095Y-92332380D02*
X107688095Y-91332380D01*
X108259523Y-92332380D02*
X107830952Y-91760952D01*
X108259523Y-91332380D02*
X107688095Y-91903809D01*
%TO.C,10K1*%
X122372380Y-106576666D02*
X122372380Y-107148095D01*
X122372380Y-106862380D02*
X121372380Y-106862380D01*
X121515238Y-106957619D01*
X121610476Y-107052857D01*
X121658095Y-107148095D01*
X121372380Y-105957619D02*
X121372380Y-105862380D01*
X121420000Y-105767142D01*
X121467619Y-105719523D01*
X121562857Y-105671904D01*
X121753333Y-105624285D01*
X121991428Y-105624285D01*
X122181904Y-105671904D01*
X122277142Y-105719523D01*
X122324761Y-105767142D01*
X122372380Y-105862380D01*
X122372380Y-105957619D01*
X122324761Y-106052857D01*
X122277142Y-106100476D01*
X122181904Y-106148095D01*
X121991428Y-106195714D01*
X121753333Y-106195714D01*
X121562857Y-106148095D01*
X121467619Y-106100476D01*
X121420000Y-106052857D01*
X121372380Y-105957619D01*
X122372380Y-105195714D02*
X121372380Y-105195714D01*
X122372380Y-104624285D02*
X121800952Y-105052857D01*
X121372380Y-104624285D02*
X121943809Y-105195714D01*
X122372380Y-103671904D02*
X122372380Y-104243333D01*
X122372380Y-103957619D02*
X121372380Y-103957619D01*
X121515238Y-104052857D01*
X121610476Y-104148095D01*
X121658095Y-104243333D01*
%TO.C,100pfd1*%
X112272380Y-107823333D02*
X112272380Y-108394761D01*
X112272380Y-108109047D02*
X111272380Y-108109047D01*
X111415238Y-108204285D01*
X111510476Y-108299523D01*
X111558095Y-108394761D01*
X111272380Y-107204285D02*
X111272380Y-107109047D01*
X111320000Y-107013809D01*
X111367619Y-106966190D01*
X111462857Y-106918571D01*
X111653333Y-106870952D01*
X111891428Y-106870952D01*
X112081904Y-106918571D01*
X112177142Y-106966190D01*
X112224761Y-107013809D01*
X112272380Y-107109047D01*
X112272380Y-107204285D01*
X112224761Y-107299523D01*
X112177142Y-107347142D01*
X112081904Y-107394761D01*
X111891428Y-107442380D01*
X111653333Y-107442380D01*
X111462857Y-107394761D01*
X111367619Y-107347142D01*
X111320000Y-107299523D01*
X111272380Y-107204285D01*
X111272380Y-106251904D02*
X111272380Y-106156666D01*
X111320000Y-106061428D01*
X111367619Y-106013809D01*
X111462857Y-105966190D01*
X111653333Y-105918571D01*
X111891428Y-105918571D01*
X112081904Y-105966190D01*
X112177142Y-106013809D01*
X112224761Y-106061428D01*
X112272380Y-106156666D01*
X112272380Y-106251904D01*
X112224761Y-106347142D01*
X112177142Y-106394761D01*
X112081904Y-106442380D01*
X111891428Y-106490000D01*
X111653333Y-106490000D01*
X111462857Y-106442380D01*
X111367619Y-106394761D01*
X111320000Y-106347142D01*
X111272380Y-106251904D01*
X111605714Y-105490000D02*
X112605714Y-105490000D01*
X111653333Y-105490000D02*
X111605714Y-105394761D01*
X111605714Y-105204285D01*
X111653333Y-105109047D01*
X111700952Y-105061428D01*
X111796190Y-105013809D01*
X112081904Y-105013809D01*
X112177142Y-105061428D01*
X112224761Y-105109047D01*
X112272380Y-105204285D01*
X112272380Y-105394761D01*
X112224761Y-105490000D01*
X111605714Y-104728095D02*
X111605714Y-104347142D01*
X112272380Y-104585238D02*
X111415238Y-104585238D01*
X111320000Y-104537619D01*
X111272380Y-104442380D01*
X111272380Y-104347142D01*
X112272380Y-103585238D02*
X111272380Y-103585238D01*
X112224761Y-103585238D02*
X112272380Y-103680476D01*
X112272380Y-103870952D01*
X112224761Y-103966190D01*
X112177142Y-104013809D01*
X112081904Y-104061428D01*
X111796190Y-104061428D01*
X111700952Y-104013809D01*
X111653333Y-103966190D01*
X111605714Y-103870952D01*
X111605714Y-103680476D01*
X111653333Y-103585238D01*
X112272380Y-102585238D02*
X112272380Y-103156666D01*
X112272380Y-102870952D02*
X111272380Y-102870952D01*
X111415238Y-102966190D01*
X111510476Y-103061428D01*
X111558095Y-103156666D01*
%TO.C,100nfd1*%
X119506666Y-83062380D02*
X118935238Y-83062380D01*
X119220952Y-83062380D02*
X119220952Y-82062380D01*
X119125714Y-82205238D01*
X119030476Y-82300476D01*
X118935238Y-82348095D01*
X120125714Y-82062380D02*
X120220952Y-82062380D01*
X120316190Y-82110000D01*
X120363809Y-82157619D01*
X120411428Y-82252857D01*
X120459047Y-82443333D01*
X120459047Y-82681428D01*
X120411428Y-82871904D01*
X120363809Y-82967142D01*
X120316190Y-83014761D01*
X120220952Y-83062380D01*
X120125714Y-83062380D01*
X120030476Y-83014761D01*
X119982857Y-82967142D01*
X119935238Y-82871904D01*
X119887619Y-82681428D01*
X119887619Y-82443333D01*
X119935238Y-82252857D01*
X119982857Y-82157619D01*
X120030476Y-82110000D01*
X120125714Y-82062380D01*
X121078095Y-82062380D02*
X121173333Y-82062380D01*
X121268571Y-82110000D01*
X121316190Y-82157619D01*
X121363809Y-82252857D01*
X121411428Y-82443333D01*
X121411428Y-82681428D01*
X121363809Y-82871904D01*
X121316190Y-82967142D01*
X121268571Y-83014761D01*
X121173333Y-83062380D01*
X121078095Y-83062380D01*
X120982857Y-83014761D01*
X120935238Y-82967142D01*
X120887619Y-82871904D01*
X120840000Y-82681428D01*
X120840000Y-82443333D01*
X120887619Y-82252857D01*
X120935238Y-82157619D01*
X120982857Y-82110000D01*
X121078095Y-82062380D01*
X121840000Y-82395714D02*
X121840000Y-83062380D01*
X121840000Y-82490952D02*
X121887619Y-82443333D01*
X121982857Y-82395714D01*
X122125714Y-82395714D01*
X122220952Y-82443333D01*
X122268571Y-82538571D01*
X122268571Y-83062380D01*
X122601904Y-82395714D02*
X122982857Y-82395714D01*
X122744761Y-83062380D02*
X122744761Y-82205238D01*
X122792380Y-82110000D01*
X122887619Y-82062380D01*
X122982857Y-82062380D01*
X123744761Y-83062380D02*
X123744761Y-82062380D01*
X123744761Y-83014761D02*
X123649523Y-83062380D01*
X123459047Y-83062380D01*
X123363809Y-83014761D01*
X123316190Y-82967142D01*
X123268571Y-82871904D01*
X123268571Y-82586190D01*
X123316190Y-82490952D01*
X123363809Y-82443333D01*
X123459047Y-82395714D01*
X123649523Y-82395714D01*
X123744761Y-82443333D01*
X124744761Y-83062380D02*
X124173333Y-83062380D01*
X124459047Y-83062380D02*
X124459047Y-82062380D01*
X124363809Y-82205238D01*
X124268571Y-82300476D01*
X124173333Y-82348095D01*
%TD*%
M02*
