%TF.GenerationSoftware,KiCad,Pcbnew,(5.1.9)-1*%
%TF.CreationDate,2021-03-19T20:09:11+05:30*%
%TF.ProjectId,test2,74657374-322e-46b6-9963-61645f706362,rev?*%
%TF.SameCoordinates,Original*%
%TF.FileFunction,Copper,L1,Top*%
%TF.FilePolarity,Positive*%
%FSLAX46Y46*%
G04 Gerber Fmt 4.6, Leading zero omitted, Abs format (unit mm)*
G04 Created by KiCad (PCBNEW (5.1.9)-1) date 2021-03-19 20:09:11*
%MOMM*%
%LPD*%
G01*
G04 APERTURE LIST*
%TA.AperFunction,WasherPad*%
%ADD10C,4.000000*%
%TD*%
%TA.AperFunction,ComponentPad*%
%ADD11C,1.800000*%
%TD*%
%TA.AperFunction,ComponentPad*%
%ADD12C,2.600000*%
%TD*%
%TA.AperFunction,ComponentPad*%
%ADD13O,2.000000X1.905000*%
%TD*%
%TA.AperFunction,ComponentPad*%
%ADD14R,2.000000X1.905000*%
%TD*%
%TA.AperFunction,ComponentPad*%
%ADD15O,2.200000X2.200000*%
%TD*%
%TA.AperFunction,ComponentPad*%
%ADD16R,2.200000X2.200000*%
%TD*%
%TA.AperFunction,ComponentPad*%
%ADD17C,2.000000*%
%TD*%
%TA.AperFunction,Conductor*%
%ADD18C,0.500000*%
%TD*%
%TA.AperFunction,Conductor*%
%ADD19C,0.250000*%
%TD*%
G04 APERTURE END LIST*
D10*
%TO.P,RV1,*%
%TO.N,*%
X108580000Y-83170000D03*
X99780000Y-83170000D03*
D11*
%TO.P,RV1,1*%
%TO.N,Net-(D1-Pad1)*%
X106680000Y-90170000D03*
%TO.P,RV1,2*%
%TO.N,Net-(RV1-Pad2)*%
X104180000Y-90170000D03*
%TO.P,RV1,3*%
%TO.N,Net-(D2-Pad2)*%
X101680000Y-90170000D03*
%TD*%
D12*
%TO.P,vcc1,2*%
%TO.N,+12v*%
X134620000Y-87630000D03*
%TO.P,vcc1,1*%
%TO.N,GND*%
%TA.AperFunction,ComponentPad*%
G36*
G01*
X133970000Y-81250000D02*
X135270000Y-81250000D01*
G75*
G02*
X135920000Y-81900000I0J-650000D01*
G01*
X135920000Y-83200000D01*
G75*
G02*
X135270000Y-83850000I-650000J0D01*
G01*
X133970000Y-83850000D01*
G75*
G02*
X133320000Y-83200000I0J650000D01*
G01*
X133320000Y-81900000D01*
G75*
G02*
X133970000Y-81250000I650000J0D01*
G01*
G37*
%TD.AperFunction*%
%TD*%
%TO.P,U1,8*%
%TO.N,+12v*%
%TA.AperFunction,SMDPad,CuDef*%
G36*
G01*
X108435000Y-105940000D02*
X108735000Y-105940000D01*
G75*
G02*
X108885000Y-106090000I0J-150000D01*
G01*
X108885000Y-107440000D01*
G75*
G02*
X108735000Y-107590000I-150000J0D01*
G01*
X108435000Y-107590000D01*
G75*
G02*
X108285000Y-107440000I0J150000D01*
G01*
X108285000Y-106090000D01*
G75*
G02*
X108435000Y-105940000I150000J0D01*
G01*
G37*
%TD.AperFunction*%
%TO.P,U1,7*%
%TO.N,Net-(10K1-Pad2)*%
%TA.AperFunction,SMDPad,CuDef*%
G36*
G01*
X107165000Y-105940000D02*
X107465000Y-105940000D01*
G75*
G02*
X107615000Y-106090000I0J-150000D01*
G01*
X107615000Y-107440000D01*
G75*
G02*
X107465000Y-107590000I-150000J0D01*
G01*
X107165000Y-107590000D01*
G75*
G02*
X107015000Y-107440000I0J150000D01*
G01*
X107015000Y-106090000D01*
G75*
G02*
X107165000Y-105940000I150000J0D01*
G01*
G37*
%TD.AperFunction*%
%TO.P,U1,6*%
%TO.N,/TRGTHR*%
%TA.AperFunction,SMDPad,CuDef*%
G36*
G01*
X105895000Y-105940000D02*
X106195000Y-105940000D01*
G75*
G02*
X106345000Y-106090000I0J-150000D01*
G01*
X106345000Y-107440000D01*
G75*
G02*
X106195000Y-107590000I-150000J0D01*
G01*
X105895000Y-107590000D01*
G75*
G02*
X105745000Y-107440000I0J150000D01*
G01*
X105745000Y-106090000D01*
G75*
G02*
X105895000Y-105940000I150000J0D01*
G01*
G37*
%TD.AperFunction*%
%TO.P,U1,5*%
%TO.N,Net-(100pfd1-Pad1)*%
%TA.AperFunction,SMDPad,CuDef*%
G36*
G01*
X104625000Y-105940000D02*
X104925000Y-105940000D01*
G75*
G02*
X105075000Y-106090000I0J-150000D01*
G01*
X105075000Y-107440000D01*
G75*
G02*
X104925000Y-107590000I-150000J0D01*
G01*
X104625000Y-107590000D01*
G75*
G02*
X104475000Y-107440000I0J150000D01*
G01*
X104475000Y-106090000D01*
G75*
G02*
X104625000Y-105940000I150000J0D01*
G01*
G37*
%TD.AperFunction*%
%TO.P,U1,4*%
%TO.N,+12v*%
%TA.AperFunction,SMDPad,CuDef*%
G36*
G01*
X104625000Y-100690000D02*
X104925000Y-100690000D01*
G75*
G02*
X105075000Y-100840000I0J-150000D01*
G01*
X105075000Y-102190000D01*
G75*
G02*
X104925000Y-102340000I-150000J0D01*
G01*
X104625000Y-102340000D01*
G75*
G02*
X104475000Y-102190000I0J150000D01*
G01*
X104475000Y-100840000D01*
G75*
G02*
X104625000Y-100690000I150000J0D01*
G01*
G37*
%TD.AperFunction*%
%TO.P,U1,3*%
%TO.N,Net-(RV1-Pad2)*%
%TA.AperFunction,SMDPad,CuDef*%
G36*
G01*
X105895000Y-100690000D02*
X106195000Y-100690000D01*
G75*
G02*
X106345000Y-100840000I0J-150000D01*
G01*
X106345000Y-102190000D01*
G75*
G02*
X106195000Y-102340000I-150000J0D01*
G01*
X105895000Y-102340000D01*
G75*
G02*
X105745000Y-102190000I0J150000D01*
G01*
X105745000Y-100840000D01*
G75*
G02*
X105895000Y-100690000I150000J0D01*
G01*
G37*
%TD.AperFunction*%
%TO.P,U1,2*%
%TO.N,/TRGTHR*%
%TA.AperFunction,SMDPad,CuDef*%
G36*
G01*
X107165000Y-100690000D02*
X107465000Y-100690000D01*
G75*
G02*
X107615000Y-100840000I0J-150000D01*
G01*
X107615000Y-102190000D01*
G75*
G02*
X107465000Y-102340000I-150000J0D01*
G01*
X107165000Y-102340000D01*
G75*
G02*
X107015000Y-102190000I0J150000D01*
G01*
X107015000Y-100840000D01*
G75*
G02*
X107165000Y-100690000I150000J0D01*
G01*
G37*
%TD.AperFunction*%
%TO.P,U1,1*%
%TO.N,GND*%
%TA.AperFunction,SMDPad,CuDef*%
G36*
G01*
X108435000Y-100690000D02*
X108735000Y-100690000D01*
G75*
G02*
X108885000Y-100840000I0J-150000D01*
G01*
X108885000Y-102190000D01*
G75*
G02*
X108735000Y-102340000I-150000J0D01*
G01*
X108435000Y-102340000D01*
G75*
G02*
X108285000Y-102190000I0J150000D01*
G01*
X108285000Y-100840000D01*
G75*
G02*
X108435000Y-100690000I150000J0D01*
G01*
G37*
%TD.AperFunction*%
%TD*%
D13*
%TO.P,Q1,3*%
%TO.N,GND*%
X123190000Y-93980000D03*
%TO.P,Q1,2*%
%TO.N,Net-(D3-Pad2)*%
X123190000Y-96520000D03*
D14*
%TO.P,Q1,1*%
%TO.N,Net-(10K1-Pad2)*%
X123190000Y-99060000D03*
%TD*%
D12*
%TO.P,dcmotor1,2*%
%TO.N,Net-(D3-Pad2)*%
X134620000Y-96520000D03*
%TO.P,dcmotor1,1*%
%TO.N,+12v*%
%TA.AperFunction,ComponentPad*%
G36*
G01*
X135270000Y-102900000D02*
X133970000Y-102900000D01*
G75*
G02*
X133320000Y-102250000I0J650000D01*
G01*
X133320000Y-100950000D01*
G75*
G02*
X133970000Y-100300000I650000J0D01*
G01*
X135270000Y-100300000D01*
G75*
G02*
X135920000Y-100950000I0J-650000D01*
G01*
X135920000Y-102250000D01*
G75*
G02*
X135270000Y-102900000I-650000J0D01*
G01*
G37*
%TD.AperFunction*%
%TD*%
D15*
%TO.P,D3,2*%
%TO.N,Net-(D3-Pad2)*%
X128270000Y-91440000D03*
D16*
%TO.P,D3,1*%
%TO.N,+12v*%
X128270000Y-101600000D03*
%TD*%
D15*
%TO.P,D2,2*%
%TO.N,Net-(D2-Pad2)*%
X100330000Y-97790000D03*
D16*
%TO.P,D2,1*%
%TO.N,/TRGTHR*%
X110490000Y-97790000D03*
%TD*%
D15*
%TO.P,D1,2*%
%TO.N,/TRGTHR*%
X118110000Y-93980000D03*
D16*
%TO.P,D1,1*%
%TO.N,Net-(D1-Pad1)*%
X107950000Y-93980000D03*
%TD*%
%TO.P,10K1,2*%
%TO.N,Net-(10K1-Pad2)*%
%TA.AperFunction,SMDPad,CuDef*%
G36*
G01*
X123815001Y-104510000D02*
X122564999Y-104510000D01*
G75*
G02*
X122315000Y-104260001I0J249999D01*
G01*
X122315000Y-103634999D01*
G75*
G02*
X122564999Y-103385000I249999J0D01*
G01*
X123815001Y-103385000D01*
G75*
G02*
X124065000Y-103634999I0J-249999D01*
G01*
X124065000Y-104260001D01*
G75*
G02*
X123815001Y-104510000I-249999J0D01*
G01*
G37*
%TD.AperFunction*%
%TO.P,10K1,1*%
%TO.N,+12v*%
%TA.AperFunction,SMDPad,CuDef*%
G36*
G01*
X123815001Y-107435000D02*
X122564999Y-107435000D01*
G75*
G02*
X122315000Y-107185001I0J249999D01*
G01*
X122315000Y-106559999D01*
G75*
G02*
X122564999Y-106310000I249999J0D01*
G01*
X123815001Y-106310000D01*
G75*
G02*
X124065000Y-106559999I0J-249999D01*
G01*
X124065000Y-107185001D01*
G75*
G02*
X123815001Y-107435000I-249999J0D01*
G01*
G37*
%TD.AperFunction*%
%TD*%
D17*
%TO.P,100pfd1,2*%
%TO.N,GND*%
X115570000Y-100490000D03*
%TO.P,100pfd1,1*%
%TO.N,Net-(100pfd1-Pad1)*%
X115570000Y-110490000D03*
%TD*%
%TO.P,100nfd1,2*%
%TO.N,GND*%
X126840000Y-86360000D03*
%TO.P,100nfd1,1*%
%TO.N,/TRGTHR*%
X116840000Y-86360000D03*
%TD*%
D18*
%TO.N,GND*%
X115325000Y-101515000D02*
X115570000Y-101760000D01*
X123190000Y-94140000D02*
X123190000Y-93980000D01*
X134620000Y-82550000D02*
X132080000Y-82550000D01*
X132080000Y-82550000D02*
X130810000Y-83820000D01*
X130810000Y-83820000D02*
X130810000Y-86360000D01*
X130810000Y-86360000D02*
X126840000Y-86360000D01*
X123190000Y-93980000D02*
X123190000Y-88900000D01*
X124300000Y-88900000D02*
X126840000Y-86360000D01*
X123190000Y-88900000D02*
X124300000Y-88900000D01*
X114545000Y-101515000D02*
X115570000Y-100490000D01*
X108585000Y-101515000D02*
X114545000Y-101515000D01*
X115570000Y-100490000D02*
X118270000Y-97790000D01*
X118270000Y-97790000D02*
X119380000Y-97790000D01*
X119380000Y-97790000D02*
X119380000Y-96520000D01*
X121920000Y-93980000D02*
X123190000Y-93980000D01*
X119380000Y-96520000D02*
X121920000Y-93980000D01*
%TO.N,/TRGTHR*%
X114300000Y-97790000D02*
X118110000Y-93980000D01*
X110490000Y-97790000D02*
X114300000Y-97790000D01*
X107315000Y-101515000D02*
X107315000Y-100965000D01*
X116840000Y-87630000D02*
X116840000Y-86360000D01*
X115570000Y-88900000D02*
X116840000Y-87630000D01*
X115570000Y-91440000D02*
X115570000Y-88900000D01*
X118110000Y-93980000D02*
X115570000Y-91440000D01*
X106045000Y-106765000D02*
X106045000Y-104775000D01*
X106045000Y-104775000D02*
X105410000Y-104140000D01*
X107315000Y-101515000D02*
X107315000Y-102235000D01*
X106045000Y-103505000D02*
X106045000Y-104775000D01*
X107315000Y-102235000D02*
X106045000Y-103505000D01*
X107315000Y-100965000D02*
X109220000Y-99060000D01*
D19*
X109220000Y-99060000D02*
X107950000Y-99060000D01*
D18*
X109220000Y-99060000D02*
X110490000Y-97790000D01*
%TO.N,Net-(100pfd1-Pad1)*%
X104775000Y-107590000D02*
X104140000Y-108225000D01*
X104775000Y-106765000D02*
X104775000Y-107590000D01*
X104140000Y-108225000D02*
X104140000Y-109220000D01*
X115570000Y-110490000D02*
X105410000Y-110490000D01*
X105410000Y-110490000D02*
X104140000Y-109220000D01*
%TO.N,Net-(10K1-Pad2)*%
X123190000Y-103947500D02*
X123190000Y-99060000D01*
X107315000Y-106765000D02*
X107315000Y-106045000D01*
X107315000Y-106765000D02*
X107315000Y-104775000D01*
X107315000Y-104775000D02*
X107950000Y-104140000D01*
X107950000Y-104140000D02*
X111760000Y-104140000D01*
X111952500Y-103947500D02*
X123190000Y-103947500D01*
X111760000Y-104140000D02*
X111952500Y-103947500D01*
%TO.N,+12v*%
X134620000Y-87630000D02*
X134620000Y-90170000D01*
X134620000Y-90170000D02*
X138430000Y-93980000D01*
X138430000Y-97790000D02*
X134620000Y-101600000D01*
X138430000Y-93980000D02*
X138430000Y-97790000D01*
X134620000Y-101600000D02*
X128270000Y-101600000D01*
X128270000Y-101600000D02*
X128270000Y-105410000D01*
X126807500Y-106872500D02*
X123190000Y-106872500D01*
X128270000Y-105410000D02*
X126807500Y-106872500D01*
X123082500Y-106765000D02*
X123190000Y-106872500D01*
X108585000Y-106765000D02*
X123082500Y-106765000D01*
X104775000Y-101515000D02*
X101685000Y-101515000D01*
X101685000Y-101515000D02*
X100330000Y-102870000D01*
X100330000Y-102870000D02*
X100330000Y-111760000D01*
X123190000Y-106872500D02*
X123190000Y-111760000D01*
X123190000Y-111760000D02*
X121920000Y-113030000D01*
X121920000Y-113030000D02*
X101600000Y-113030000D01*
X101600000Y-113030000D02*
X100330000Y-111760000D01*
D19*
X105325000Y-101515000D02*
X104775000Y-101515000D01*
D18*
%TO.N,Net-(D3-Pad2)*%
X128270000Y-91440000D02*
X133350000Y-91440000D01*
X134620000Y-92710000D02*
X134620000Y-96520000D01*
X133350000Y-91440000D02*
X134620000Y-92710000D01*
X128270000Y-93980000D02*
X128270000Y-91440000D01*
X125730000Y-96520000D02*
X128270000Y-93980000D01*
X123190000Y-96520000D02*
X125730000Y-96520000D01*
%TO.N,Net-(D1-Pad1)*%
X106680000Y-92710000D02*
X107950000Y-93980000D01*
X106680000Y-90170000D02*
X106680000Y-92710000D01*
%TO.N,Net-(D2-Pad2)*%
X100330000Y-97790000D02*
X99060000Y-96520000D01*
X99060000Y-92790000D02*
X101680000Y-90170000D01*
X99060000Y-96520000D02*
X99060000Y-92790000D01*
%TO.N,Net-(RV1-Pad2)*%
X104180000Y-90170000D02*
X104180000Y-94020000D01*
X104180000Y-94020000D02*
X106045000Y-95885000D01*
X106045000Y-95885000D02*
X106045000Y-101515000D01*
D19*
X104180000Y-94020000D02*
X105410000Y-95250000D01*
%TD*%
M02*
